<svg width="557px" height="557px" viewBox="0 0 557 557" version="1.1" xmlns="http://www.w3.org/2000/svg" xmlns:xlink="http://www.w3.org/1999/xlink">
    <g id="Page-1-Copy" stroke="none" stroke-width="1" fill="none" fill-rule="evenodd">
        <g id="Campus-scherm" transform="translate(-105.000000, -404.000000)" stroke-width="20" stroke="#FF0000">
            <polygon id="Page-1" points="383.532436 419.408366 360.15928 445.224707 332.199252 424.464992 314.312232 454.344278 282.839498 439.437525 271.12506 472.232845 237.348442 463.752511 232.256991 498.203191 197.475085 496.475859 199.203191 531.256991 164.752511 536.348442 173.232845 570.12506 140.437525 581.839498 155.343504 613.312232 125.464218 631.200026 146.223933 659.160054 120.408366 682.532436 146.223933 705.905592 125.464218 733.86562 155.343504 751.75264 140.437525 783.225374 173.232845 794.939812 164.752511 828.71643 199.203191 833.807881 197.475085 868.589013 232.256991 866.861681 237.348442 901.311587 271.12506 892.832801 282.839498 925.627346 314.312232 910.721368 332.199252 940.600654 360.15928 919.840939 383.532436 945.656505 406.904818 919.840939 434.864846 940.600654 452.75264 910.721368 484.225374 925.627346 495.939812 892.832801 529.71643 901.311587 534.807881 866.861681 569.589013 868.589013 567.861681 833.807881 602.312361 828.71643 593.832027 794.939812 626.627346 783.225374 611.720594 751.75264 641.59988 733.86562 620.840165 705.905592 646.656505 682.532436 620.840165 659.160054 641.59988 631.200026 611.720594 613.312232 626.627346 581.839498 593.832027 570.12506 602.312361 536.348442 567.861681 531.256991 569.589013 496.475859 534.807881 498.203191 529.71643 463.752511 495.939812 472.232845 484.225374 439.437525 452.75264 454.344278 434.864846 424.464992 406.904818 445.224707"></polygon>
        </g>
    </g>
</svg>
