<svg id="Layer_1" data-name="Layer 1" xmlns="http://www.w3.org/2000/svg" viewBox="0 0 680 680"><defs><style>.cls-1{fill:#e20613;}</style></defs><title>logo-circle</title><polygon class="cls-1" points="340 0 370.2 33.36 406.33 6.53 429.44 45.14 470.11 25.88 485.25 68.26 528.89 57.3 535.47 101.82 580.42 99.58 578.18 144.53 622.7 151.11 611.74 194.75 654.12 209.89 634.86 250.56 673.47 273.67 646.64 309.8 680 340 646.64 370.2 673.47 406.33 634.86 429.44 654.12 470.11 611.74 485.25 622.7 528.89 578.18 535.47 580.42 580.42 535.47 578.18 528.89 622.7 485.25 611.74 470.11 654.12 429.44 634.86 406.33 673.47 370.2 646.64 340 680 309.8 646.64 273.67 673.47 250.56 634.86 209.89 654.12 194.75 611.74 151.11 622.7 144.53 578.18 99.58 580.42 101.82 535.47 57.3 528.89 68.26 485.25 25.88 470.11 45.14 429.44 6.53 406.33 33.36 370.2 0 340 33.36 309.8 6.53 273.67 45.14 250.56 25.88 209.89 68.26 194.75 57.3 151.11 101.82 144.53 99.58 99.58 144.53 101.82 151.11 57.3 194.75 68.26 209.89 25.88 250.56 45.14 273.67 6.53 309.8 33.36 340 0"/></svg>