<svg id="Layer_1" data-name="Layer 1" xmlns="http://www.w3.org/2000/svg" viewBox="0 0 476 474.76"><defs><style>.cls-1,.cls-2,.cls-3,.cls-4,.cls-5,.cls-6,.cls-7{fill:#ffec00;}.cls-1{opacity:0.05;}.cls-2{opacity:0.22;}.cls-3{opacity:0.39;}.cls-4{opacity:0.56;}.cls-5{opacity:0.73;}.cls-6{opacity:0.9;}</style></defs><title>logo-sssssst</title><path class="cls-1" d="M21.1,86.61q3.07-3.07,6.18-.26l19.39,19.39q2.66,2.66-.22,6.43-12,15.85-9.84,32.92t18.1,33q14.64,14.64,31.5,19.1t28.3-7a26.73,26.73,0,0,0,7.3-12.56,33.81,33.81,0,0,0,1-12.48q-.72-5.49-5.74-15.11a136.4,136.4,0,0,0-8.83-15L96.19,117.2Q73.74,85.53,73,62.39T93.42,18.12Q115.52-4,144.87.88t52.27,27.78Q224.51,56,228.26,85.53t-17.4,50.66q-3.21,3.21-6.71,0l-18.3-18.3q-2.23-2.23.16-6.52,17.18-28.33-12.73-58.24-13.69-13.69-28.72-17t-25.68,7.38q-10,10-7.94,25.6T132.6,112q22.76,32,27.87,56.31t-16,45.47Q121.3,236.89,89,232.66T29.58,201.31Q2.41,174.14.19,141.94T21.1,86.61Z"/><path class="cls-2" d="M46.54,112q3.07-3.07,6.18-.26l19.39,19.39q2.66,2.66-.22,6.43-12,15.85-9.84,32.92t18.1,33q14.64,14.64,31.5,19.1t28.3-7a26.73,26.73,0,0,0,7.3-12.56,33.81,33.81,0,0,0,1-12.48q-.72-5.49-5.74-15.11a136.4,136.4,0,0,0-8.83-15l-12.1-17.82Q99.17,111,98.45,87.83t20.41-44.28q22.1-22.1,51.46-17.24t52.27,27.78Q249.94,81.45,253.69,111t-17.4,50.66q-3.21,3.21-6.71,0l-18.3-18.3q-2.23-2.23.16-6.52,17.18-28.33-12.73-58.24Q185,64.9,170,61.64T144.31,69q-10,10-7.94,25.6C137.76,105,145,119.23,158,137.41c15.23,21.28,24.46,40.09,27.87,56.31s-1.94,31.38-16,45.47q-23.13,23.13-55.44,18.9T55,226.74q-27.17-27.17-29.38-59.37T46.54,112Z"/><path class="cls-3" d="M72,137.48q3.07-3.07,6.18-.26l19.39,19.39q2.66,2.66-.22,6.43-12,15.85-9.84,32.92t18.1,33q14.64,14.64,31.5,19.1t28.3-7a26.73,26.73,0,0,0,7.3-12.56,33.81,33.81,0,0,0,1-12.48q-.72-5.49-5.74-15.11a136.4,136.4,0,0,0-8.83-15l-12.1-17.82q-22.45-31.66-23.17-54.8T144.29,69q22.1-22.1,51.46-17.24T248,79.52q27.37,27.37,31.12,56.88t-17.4,50.66q-3.21,3.21-6.71,0l-18.3-18.3q-2.23-2.23.16-6.52,17.18-28.33-12.73-58.24-13.69-13.69-28.72-17t-25.68,7.38q-10,10-7.94,25.6c1.39,10.39,8.65,24.62,21.66,42.79,15.23,21.28,24.46,40.09,27.87,56.31s-1.94,31.38-16,45.47q-23.13,23.13-55.44,18.9T80.44,252.18Q53.28,225,51.06,192.81T72,137.48Z"/><path class="cls-4" d="M97.41,162.91q3.07-3.07,6.18-.26L123,182q2.66,2.66-.22,6.43-12,15.85-9.84,32.92t18.1,33q14.64,14.64,31.5,19.1t28.3-7a26.73,26.73,0,0,0,7.3-12.56,33.81,33.81,0,0,0,1-12.48q-.72-5.49-5.74-15.11a136.4,136.4,0,0,0-8.83-15l-12.1-17.82Q150,161.83,149.31,138.7t20.41-44.28q22.1-22.1,51.46-17.24T273.44,105q27.37,27.37,31.12,56.88t-17.4,50.66q-3.21,3.21-6.71,0l-18.3-18.3q-2.23-2.23.16-6.52,17.18-28.33-12.73-58.24-13.69-13.69-28.72-17t-25.68,7.38q-10,10-7.94,25.6c1.39,10.39,8.65,24.62,21.66,42.79,15.23,21.28,24.46,40.09,27.87,56.31s-1.94,31.38-16,45.47Q197.61,313.19,165.3,309t-59.42-31.35q-27.17-27.17-29.38-59.37T97.41,162.91Z"/><path class="cls-5" d="M122.84,188.35q3.07-3.07,6.18-.26l19.39,19.39q2.66,2.66-.22,6.43-12,15.85-9.84,32.92t18.1,33q14.64,14.64,31.5,19.1t28.3-7a26.73,26.73,0,0,0,7.3-12.56,33.81,33.81,0,0,0,1-12.48q-.72-5.49-5.74-15.11a136.4,136.4,0,0,0-8.83-15l-12.1-17.82q-22.45-31.66-23.17-54.8t20.41-44.28q22.1-22.1,51.46-17.24t52.27,27.78q27.37,27.37,31.12,56.88t-17.4,50.66q-3.21,3.21-6.71,0l-18.3-18.3q-2.23-2.23.16-6.52,17.18-28.33-12.73-58.24-13.69-13.69-28.72-17t-25.68,7.38q-10,10-7.94,25.6c1.39,10.39,8.65,24.62,21.66,42.79C249.56,235,258.8,253.8,262.2,270s-1.94,31.38-16,45.47q-23.13,23.13-55.44,18.9T131.31,303q-27.17-27.17-29.38-59.37T122.84,188.35Z"/><path class="cls-6" d="M148.27,213.78q3.07-3.07,6.18-.26l19.39,19.39q2.66,2.66-.22,6.43-12,15.85-9.84,32.92t18.1,33q14.64,14.64,31.5,19.1t28.3-7a26.73,26.73,0,0,0,7.3-12.56,33.81,33.81,0,0,0,1-12.48q-.72-5.49-5.74-15.11a136.4,136.4,0,0,0-8.83-15l-12.1-17.82q-22.45-31.66-23.17-54.8t20.41-44.28Q242.69,123.19,272,128t52.27,27.78q27.37,27.37,31.12,56.88T338,263.36q-3.21,3.21-6.71,0L313,245.09q-2.23-2.23.16-6.52,17.18-28.33-12.73-58.24-13.69-13.69-28.72-17T246,170.75q-10,10-7.94,25.6t21.66,42.79q22.76,32,27.87,56.31t-16,45.47q-23.13,23.13-55.44,18.9t-59.42-31.35q-27.17-27.17-29.38-59.37T148.27,213.78Z"/><path class="cls-7" d="M333,213.13l17.78-17.78q3.2-3.2,6.4,0l29.58,29.58,46.79-46.79q3.17-3.17,6.34,0l18.82,18.82q3.16,3.16,0,6.34l-46.79,46.79,62.53,62.53q3.19,3.19,0,6.39l-17.78,17.78q-3.2,3.2-6.39,0l-62.53-62.53-76.18,76.18q-42.22,42.22-10.17,74.26,15.3,15.3,30.56,14.4t34.92-15.79q3.17-2.53,6.36.65l19,19,1.28,1.28a2.84,2.84,0,0,1,.56,1.19,2,2,0,0,1-.21,1.65,9.12,9.12,0,0,1-1.39,1.71q-24.22,24.22-56,25.91T277.25,449q-28-28-26-59.34t34.64-63.92l76.62-76.62L333,219.53Q329.76,216.33,333,213.13Z"/></svg>