<svg id="Layer_1" data-name="Layer 1" xmlns="http://www.w3.org/2000/svg" viewBox="0 0 680 680"><defs><style>.cls-1,.cls-2,.cls-3,.cls-4,.cls-5,.cls-6,.cls-7{fill:#ffec00;}.cls-1{opacity:0.05;}.cls-2{opacity:0.22;}.cls-3{opacity:0.39;}.cls-4{opacity:0.56;}.cls-5{opacity:0.73;}.cls-6{opacity:0.9;}.cls-8{fill:none;}</style></defs><title>logo-sssssst</title><path class="cls-1" d="M123.1,189.23q3.07-3.07,6.18-.26l19.39,19.39q2.66,2.66-.22,6.43-12,15.85-9.84,32.92t18.1,33q14.64,14.64,31.5,19.1t28.3-7a26.73,26.73,0,0,0,7.3-12.56,33.81,33.81,0,0,0,1-12.48q-.72-5.49-5.74-15.11a136.4,136.4,0,0,0-8.83-15l-12.1-17.82Q175.74,188.15,175,165t20.41-44.28q22.1-22.1,51.46-17.24t52.27,27.78q27.37,27.37,31.12,56.88t-17.4,50.66q-3.21,3.21-6.71,0l-18.3-18.3q-2.23-2.23.16-6.52,17.18-28.33-12.73-58.24-13.69-13.69-28.72-17t-25.68,7.38q-10,10-7.94,25.6t21.66,42.79q22.76,32,27.87,56.31t-16,45.47Q223.3,339.51,191,335.28t-59.42-31.35q-27.17-27.17-29.38-59.37T123.1,189.23Z"/><path class="cls-2" d="M148.54,214.66q3.07-3.07,6.18-.26l19.39,19.39q2.66,2.66-.22,6.43-12,15.85-9.84,32.92t18.1,33q14.64,14.64,31.5,19.1t28.3-7a26.73,26.73,0,0,0,7.3-12.56,33.81,33.81,0,0,0,1-12.48q-.72-5.49-5.74-15.11a136.4,136.4,0,0,0-8.83-15l-12.1-17.82q-22.45-31.66-23.17-54.8t20.41-44.28q22.1-22.1,51.46-17.24t52.27,27.78q27.37,27.37,31.12,56.88t-17.4,50.66q-3.21,3.21-6.71,0L313.28,246q-2.23-2.23.16-6.52,17.18-28.33-12.73-58.24Q287,167.52,272,164.25t-25.68,7.38q-10,10-7.94,25.6C239.76,207.62,247,221.85,260,240c15.23,21.28,24.46,40.09,27.87,56.31s-1.94,31.38-16,45.47q-23.13,23.13-55.44,18.9T157,329.36Q129.84,302.19,127.63,270T148.54,214.66Z"/><path class="cls-3" d="M174,240.1q3.07-3.07,6.18-.26l19.39,19.39q2.66,2.66-.22,6.43-12,15.85-9.84,32.92t18.1,33q14.64,14.64,31.5,19.1t28.3-7a26.73,26.73,0,0,0,7.3-12.56,33.81,33.81,0,0,0,1-12.48q-.72-5.49-5.74-15.11a136.4,136.4,0,0,0-8.83-15l-12.1-17.82q-22.45-31.66-23.17-54.8t20.41-44.28q22.1-22.1,51.46-17.24T350,182.14q27.37,27.37,31.12,56.88t-17.4,50.66q-3.21,3.21-6.71,0l-18.3-18.3q-2.23-2.23.16-6.52,17.18-28.33-12.73-58.24-13.69-13.69-28.72-17t-25.68,7.38q-10,10-7.94,25.6c1.39,10.39,8.65,24.62,21.66,42.79,15.23,21.28,24.46,40.09,27.87,56.31s-1.94,31.38-16,45.47q-23.13,23.13-55.44,18.9t-59.42-31.35q-27.17-27.17-29.38-59.37T174,240.1Z"/><path class="cls-4" d="M199.41,265.53q3.07-3.07,6.18-.26L225,284.66q2.66,2.66-.22,6.43-12,15.85-9.84,32.92T233,357q14.64,14.64,31.5,19.1t28.3-7a26.73,26.73,0,0,0,7.3-12.56,33.81,33.81,0,0,0,1-12.48q-.72-5.49-5.74-15.11a136.4,136.4,0,0,0-8.83-15l-12.1-17.82q-22.45-31.66-23.17-54.8T271.72,197q22.1-22.1,51.46-17.24t52.27,27.78q27.37,27.37,31.12,56.88t-17.4,50.66q-3.21,3.21-6.71,0l-18.3-18.3q-2.23-2.23.16-6.52,17.18-28.33-12.73-58.24-13.69-13.69-28.72-17t-25.68,7.38q-10,10-7.94,25.6c1.39,10.39,8.65,24.62,21.66,42.79,15.23,21.28,24.46,40.09,27.87,56.31s-1.94,31.38-16,45.47q-23.13,23.13-55.44,18.9t-59.42-31.35q-27.17-27.17-29.38-59.37T199.41,265.53Z"/><path class="cls-5" d="M224.84,291q3.07-3.07,6.18-.26l19.39,19.39q2.66,2.66-.22,6.43-12,15.85-9.84,32.92t18.1,33q14.64,14.64,31.5,19.1t28.3-7a26.73,26.73,0,0,0,7.3-12.56,33.81,33.81,0,0,0,1-12.48q-.72-5.49-5.74-15.11a136.4,136.4,0,0,0-8.83-15l-12.1-17.82q-22.45-31.66-23.17-54.8t20.41-44.28q22.1-22.1,51.46-17.24T400.88,233q27.37,27.37,31.12,56.88t-17.4,50.66q-3.21,3.21-6.71,0l-18.3-18.3q-2.23-2.23.16-6.52,17.18-28.33-12.73-58.24-13.69-13.69-28.72-17t-25.68,7.38q-10,10-7.94,25.6c1.39,10.39,8.65,24.62,21.66,42.79,15.23,21.28,24.46,40.09,27.87,56.31s-1.94,31.38-16,45.47Q325,441.24,292.73,437t-59.42-31.35q-27.17-27.17-29.38-59.37T224.84,291Z"/><path class="cls-6" d="M250.27,316.4q3.07-3.07,6.18-.26l19.39,19.39q2.66,2.66-.22,6.43-12,15.85-9.84,32.92t18.1,33q14.64,14.64,31.5,19.1t28.3-7a26.73,26.73,0,0,0,7.3-12.56,33.81,33.81,0,0,0,1-12.48q-.72-5.49-5.74-15.11a136.4,136.4,0,0,0-8.83-15L325.35,347q-22.45-31.66-23.17-54.8t20.41-44.28q22.1-22.1,51.46-17.24t52.27,27.78q27.37,27.37,31.12,56.88T440,366q-3.21,3.21-6.71,0L415,347.71q-2.23-2.23.16-6.52,17.18-28.33-12.73-58.24-13.69-13.69-28.72-17T348,273.37q-10,10-7.94,25.6t21.66,42.79q22.76,32,27.87,56.31t-16,45.47q-23.13,23.13-55.44,18.9T258.75,431.1q-27.17-27.17-29.38-59.37T250.27,316.4Z"/><path class="cls-7" d="M435,315.75,452.75,298q3.2-3.2,6.4,0l29.58,29.58,46.79-46.79q3.17-3.17,6.34,0l18.82,18.82q3.16,3.16,0,6.34l-46.79,46.79,62.53,62.53q3.19,3.19,0,6.39L558.61,439.4q-3.2,3.2-6.39,0l-62.53-62.53-76.18,76.18q-42.22,42.22-10.17,74.26,15.3,15.3,30.56,14.4t34.92-15.79q3.17-2.53,6.36.65l19,19,1.28,1.28A2.84,2.84,0,0,1,496,548a2,2,0,0,1-.21,1.65,9.12,9.12,0,0,1-1.39,1.71q-24.22,24.22-56,25.91T379.25,551.6q-28-28-26-59.34t34.64-63.92l76.62-76.62L435,322.15Q431.76,319,435,315.75Z"/><rect class="cls-8" width="680" height="680"/><circle class="cls-8" cx="2675" cy="116"/></svg>