<?xml version="1.0" encoding="utf-8"?>
<!-- Generator: Adobe Illustrator 21.0.2, SVG Export Plug-In . SVG Version: 6.00 Build 0)  -->
<svg version="1.1" id="Layer_2_copy" xmlns="http://www.w3.org/2000/svg" xmlns:xlink="http://www.w3.org/1999/xlink" x="0px"
	 y="0px" viewBox="0 0 837.5 572" style="enable-background:new 0 0 837.5 572;" xml:space="preserve">
<style type="text/css">
	.st0{fill:none;stroke:#FFFFFF;stroke-width:2;stroke-miterlimit:10;}
</style>
<title>white-line-girl</title>
<path class="st0" d="M432.4,378.4c0,1.6,0.7,2.5,0.7,4.1c0,2,0.4,4.1-0.6,5.9c-1.4,2.2-3.6,3.5-4.7,5.9c-0.7,1.5-0.4,2.8-0.7,4.3
	c-0.3,1.1-1.3,1.8-1.3,3.1s0.9,1.9,1.4,2.9c0.5,1.2,0.9,2.5,1.1,3.8c0.7,2.6,0.1,6,0.1,8.7s-0.7,5.4,1.5,7.1
	c0.6,0.5,1.4,0.7,1.8,1.5s-0.1,1.3,0.1,2c0.5,1.9,1.2,3.7,1.9,5.5c0.7,2.3,1.1,4.9,1.6,7.2c0.3,0.7,0.6,1.4,1,2.1
	c0.2,1.1,0.6,2.1,1,3.1c1.2-0.2,1.5-2.2,1.8-3.1c0.5-1.5,1.3-2.9,1.7-4.5c0.7-2.5,0.3-5.4,0.3-7.9c0.1-2.1-0.2-4.3-0.9-6.3
	c-0.4-1.3-0.6-2.7-0.5-4.1c0.1-0.8,0.1-1.6,0-2.4c-0.1-0.5-0.8-1.2-0.8-1.6s0.6-0.8,0.8-1.3c0.1-0.7,0.1-1.3,0-2
	c0-1.8,0-2.2,1.2-3.5c1.9-2,0.4-4.9-0.7-7c-0.8-1.3-1.4-2.7-2-4.2c-0.4-1.3-0.6-2.6-0.5-4c0-2.9,0.6-6.5-0.1-9.3
	c-0.4-1.5-0.3-3.3-1.1-4.6c-0.6-1.2-1.3-2.3-2-3.4C431.6,373,430,381.4,432.4,378.4z"/>
<path class="st0" d="M433.7,393.7c-0.1-0.6-0.6-1.1-1.2-1.3c-1.1,5-1.2,10.2-0.3,15.2c0.9,3.6,1.4,7.2,1.5,10.9
	c0,1.5,0.5,2.4,0.7,3.8s-0.5,3.2,0.1,4.6c0.3,0.7,1.6,2.4,2.6,2s0.6-2.2,0.6-3c0-1.9,0.1-3.9-0.1-5.8c-0.3-1.8-0.5-3.7-0.6-5.5
	c0-2.8-0.3-5.6-1-8.4c-0.6-2.5-0.1-4.9-0.3-7.5c-0.2-1.3-0.5-2.7-1.1-3.9C433.4,392,433,391.6,433.7,393.7z"/>
<path class="st0" d="M441.7,384.4l-0.5,0.1c-1.2,3.3,0.9,9.7,2.5,12.2s3.1,4.1,3.4,7.3c0.2,2.1,0.8,4.2,1.2,6.3
	c0.5,3,0.1,6.4,0.1,9.5c0.1,1.6,0.1,3.3-0.1,4.9c-0.2,1.2-0.9,2.4-1.1,3.6s0,2.3-0.2,3.5c-0.7,0.1-1.4-0.2-2-0.7"/>
<path class="st0" d="M425.7,385.7c0.1-0.4,0.1-0.9-0.1-1.3c-1.1,0.1-1.1,1.1-1.4,2c-0.7,2.4-1.3,4.8-1.8,7.2c-0.7,4.7,0,10,0,14.7
	c-0.1,4.2,0.1,8.5,0.6,12.7c0.5,2.6,1.4,5,2.6,7.3c0.6,1,1.2,1.8,1.9,2.7c1.3,1.6,1.5,1.7,0.1,3.3"/>
<path class="st0" d="M436.4,459c0,1.5,0.5,4-0.6,5.2c-0.9,0.9-2,1-2.8,2.2c-0.4,0.6-0.6,1.3-0.6,2c-0.4,2.4,1.4,2.5,2.7,4
	c1,1.1,2,2.3,3.6,2c1.4-0.3,2.6-1.1,3.5-2.2c0.9-1.6-0.2-2.9-1-4c-0.7-1-0.7-0.4-0.4-1.3c0.3-0.2,0.5-0.4,0.7-0.6
	c0.2-0.4,0.2-0.8,0.1-1.2c0.3-0.8,0.8-1,0.7-2c-0.1-0.7-0.8-1-0.8-1.9c-0.9-0.2-1.7-0.6-2.5-0.8c-1-0.2-2.3,0.6-2.9-0.6
	c-0.7,0.6-2.4,4.5-2.5,4.6"/>
<path class="st0" d="M372.4,344.4c0,1.2-0.2,2.2,0.4,3.3c1.6,2.7,5.2,4.2,7.1,6.7c2.3,2.9,4.9,5.6,7.7,8c1.7,1.5,3.6,2.6,5.6,3.4
	c1.1,0.4,1.1,0.6,2.2-0.2c2-1.4,3.2-2.9,5.5-3.9"/>
<path class="st0" d="M471.7,354.4l-0.6,0.1c0.1,1.1,2.9,3,3.9,3.2c2.4,0.6,5.8-2.7,7.4-4.1c2-1.7,2.5-2.5,3.3-5.1
	c0.8-2.6,2-5.2,3.5-7.5c1.3-2,2-4.5,3.5-6.3c0.6-0.8,1.5-1.4,2.2-2.1c1.2-1.2,1.8-2.9,3-4.1c2-2.1,4.5-4,6.6-6.2
	c2.5-2.6,5.4-5,8.1-7.3c5.9-5,13.1-8,18.6-13.5c2.9-2.9,6.7-4.7,9.9-7.3s6.6-4.8,9.4-7.8c2.5-2.7,4.8-5.6,7.3-8.3
	c3.4-3.8,6.4-8,10-11.7c8.1-8.3,13.8-18.5,20.6-28c2.9-4.1,5.6-8.3,8-12.7c2.8-5,4.9-10.5,8.2-15.2c2.2-3.1,4.9-5.7,7-8.9
	c2.2-3.3,4.8-6.4,7.6-9.2c2.9-3.2,5.5-6.7,7.9-10.3c2.6-3.7,5.5-7.2,8.7-10.3c2.9-2.8,5.2-6,7.8-9c2.1-2.4,4.7-4.2,6.8-6.6
	c3.9-4.5,7.8-8.3,13.5-10.4c5.2-1.9,10.8-3.2,16.2-4.7c2.8-0.6,5.6-1,8.4-1.1c2.9-0.5,5.8-0.7,8.8-0.8c2.6,0,4.9-0.7,7.5-0.7
	c2.4,0.1,4.8,0.4,7.2,0.8c5.7,0.8,11.5,2.1,15.7,6.3c2,2.1,4.5,3.6,5.7,6.2c0.6,1.4,1.4,2.8,2.4,4c1.1,1.3,3.9,3.5,5.5,1.6v0.4"/>
<path class="st0" d="M787.7,150.4c-1.9,0-3.4,1.1-5.4,0.6c-2.6-0.6-4.3-3.2-6.9-4.2c-0.7-0.3-1.4-0.6-2-0.9
	c-0.8-0.2-1.7,0.1-2.5-0.1c-0.9-0.4-2-0.6-3-0.6c-1.3,0.2-2.5,0.6-3.6,1.4c-3.2,1.6-6.5,2.3-9.7,4.1c-2.4,1.4-5.1,2.6-7.5,4.1
	c-1,0.7-1.7,1.8-2.6,2.5c-1.1,0.8-2,1.6-3,2.6c-1.4,1.6-1.7,1.8-1.7,4"/>
<path class="st0" d="M719.7,193.7c-0.8,1.6-0.6,2.9-0.8,4.9c-0.3,2.7-0.5,5.2-1.8,7.6c-1,1.7-2.3,3.1-3.2,4.8s-1.2,4-2.5,5.7
	c-1.1,1.5-2.5,2.9-3.6,4.4c-2,2.8-4.5,5.2-6.5,7.9c-3.7,5.2-5.7,12.5-3.4,18.6c1.2,3.1,1.5,7.5,4.2,9.8c2.5,2.1,5.5,2.8,8.3,4.3
	c4.5,2.5,10,6.1,15.3,6c2.2,0,4.5-0.1,6.7-0.5c2.9-0.6,4.8-1.8,7.4-3c6-2.9,12.5-5.2,17.9-9.1c1.5-1.1,3.5-2,4.8-3.4
	c1-1.1,1.6-2.4,2.7-3.5c3-3.1,6.5-5.6,9.2-8.9c5.5-6.4,12.6-12.7,20.7-15.3c3.8-1.1,7.7-1.9,11.6-2.5c4.5-0.9,8.8-3.6,13.4-4h-0.4"
	/>
<path class="st0" d="M665.7,167.7c-2.5-0.6-5.6,5.3-6.4,6.7s-1.8,2.5-2.4,3.9s-0.5,3-0.7,4.6c-0.4,3.9-0.6,7.9-0.6,11.8
	c0,3.3,0.6,6.5,0.7,9.8c0,3.1,0.4,6.3,1.3,9.3c0.9,3,1.3,6.7,2.9,9.4c1.4,2.4,3.1,4.6,4.3,7.2c0.7,1.6,1.5,3.1,2.5,4.6
	c2.5,3.8,6.4,6.1,9,9.7c1,1.3,2.8,1.8,4,3c1.2,1.2,2.6,2.3,4,3.4c1.6,1.1,3.5,1.6,5.2,2.6c1.4,0.8,2.8,1.4,4.2,2.2
	c2.9,1.5,6.9,0.6,9.3,3.2"/>
<path class="st0" d="M116.4,237.1c-3.7,0.1-6.1,2.5-9.7,3.2c-1.6,0.4-3.3-0.1-4.9,0.2c-2.8,0.5-5.1,1.2-8,1.2
	c-4.1,0-8.1,0.8-11.9,2.2c-3.2,1.1-6.3,1.2-9.4,2.3c-2.5,1-4.9,2.3-7.1,3.8c-1.7,1.1-3.4,1.9-5,3.1c-1.3,0.9-2.2,2.1-3.5,3.1
	c-2.3,1.9-4.3,4.2-6.6,6.1s-3.6,5.1-5.8,7.4c-2,2.1-3.6,4.3-5.7,6.3c-1.9,1.7-4.1,3-6,4.7s-3.6,2.9-6.3,3s-5.4,1-8,1.4
	c-1.1,0.1-2.3-0.3-3.3-0.1c-0.7,0.3-1.4,0.7-2,1.2c-1.8,1.2-3.4,2.8-4.6,4.6c-1.1,1.6-0.7,3.7-0.7,5.6c0,2.3,0.1,3.5,1.5,5.2
	s3.4,2.4,5.3,3.3c1.8,1,3.8,1.5,5.8,1.5c1.1,0,2.2,0,3.3,0c1.4,0,1.8-0.4,3-0.7c1.2-0.1,2.5-0.3,3.7-0.6c1.6-0.6,3.5-1.5,5.2-1.4
	l-0.5,0"/>
<path class="st0" d="M27.7,344.4c-0.6-2.3,3.2-2.5,4.5-2.8c3.3-0.6,6.2-2.5,9.4-3.1c1-0.2,2-0.1,3-0.2c2.1-0.3,4-1.1,6.1-1.5
	c4.5-0.8,9.1-1.4,13.7-1.7c4.4-0.3,8.7-0.9,13.2-0.7c2.2,0.1,4.1,0.9,6.1,1.2c2.6,0.4,5.2,0.5,7.8,1c5,1,9.9,2.7,14.6,4.8
	c4.4,1.9,8.6,4.2,13.3,5.7c1.9,0.6,3.6,0.4,5.6,0.8c2.3,0.5,4.5,1.5,6.8,1.9c7.9,1.6,16,1.9,24,0.7c3.3-0.6,6.4-1.8,9.3-3.4
	c4.2-2.2,7.5-5.8,9.4-10.2c1.3-3.2,1.9-6.6,2-10c0-2.9-1.2-5.6-1.4-8.4c-0.1-2.3-0.2-3.3-1.3-5.4c-1-1.8-1.2-3.8-2.6-5.4
	c-2.5-2.7-5.1-5.1-8-7.3c-2.2-1.8-4.6-3.1-6.6-5.1c-2.2-2.2-5-3.9-7.4-6c-3-2.5-4.9-6-5.5-9.8c-0.7-3.5-0.6-7,0.1-10.5
	c0.4-1.9,1-3.7,1.5-5.5c0.5-1.8,1.2-3.2-0.7-4.4"/>
<path class="st0" d="M97,239.7l0.1,0.6c1.3,0,3.4-5.7,3.7-6.4c1-2.5,1.8-5.1,2.8-7.6c1.1-2.7,1.1-5.1,1.6-7.9
	c0.3-1.6,0.7-3.1,1.4-4.6c0.6-1.3,1-2.6,1.2-4c0.5-3.2,1.2-6.4,2.2-9.5c1.2-3.3,2.1-6.7,3.3-10s2.2-6.8,3.6-10
	c1.2-2.8,2.3-5.3,3.7-8c1.9-3.5,4-6.9,6.3-10.1c1.7-2.2,3.7-4.2,6-5.8c0.9-0.7,1.8-1.4,2.6-2c1.4-0.9,3-1.5,4.5-2
	c4.6-1.8,9.5-2,14.5-2c2.5-0.1,5-0.1,7.5,0c2.4,0.3,4.8,1.6,7.1,2.4c1.4,0.4,2.9,0.6,4.2,1c1.2,0.3,2.2,1,3.4,1.4
	c3,1,5.7,2.3,8.7,3.3c4.2,1.5,7.6,3.7,11.4,6c3.1,1.9,5.8,4.6,8.8,6.7c2.3,1.4,4.5,3,6.6,4.8c3.3,3,5.5,6.8,8.3,10.2
	c3,3.7,7.2,6,10.4,9.6c1.8,2.1,3.7,4.2,5.5,6.3c2.1,2.4,3.9,5,6,7.4c3,3.5,5.4,7.8,8.9,10.7c2.8,2.2,4.6,5.5,7.4,7.6
	c2.5,2,4.8,4.1,7,6.4c2.9,2.9,5,6.6,7.8,9.6c2.8,3,5,6.1,7.6,9c1.4,1.5,2.8,3,4.2,4.5c1.6,1.7,2.5,3.6,4,5.3c2.9,3.5,6.3,6.5,9.1,10
	c3.5,4.3,6.9,8.8,10.5,13c2.9,3.2,5.3,6.8,8.2,10c1.3,1.3,2.5,2.8,3.7,4.2c1.6,2,3.7,3.5,5.2,5.5c2.4,3,5,5.6,7.3,8.7
	c2.1,2.6,4.4,5.1,6.8,7.4c2.2,2.1,4.5,4.5,7.3,6c2.5,1.3,4.8,3,6.7,5.1c1.8,2.4,3.9,4.4,6.4,6c1.1,0.7,2.5,1.1,3.6,2
	c0.9,0.7,1.9,1.6,2.8,2.4c1.3,1.3,2.4,2.7,3.3,4.3c0.9,1.2,2.1,3.9,3.7,4.3c-0.3,1.5-1,2.9-2,4.1"/>
<path class="st0" d="M158.4,295.7l0.1-0.6c5.4-1.2,9.2-5.3,13.6-8.5c2.5-1.8,5.3-3.4,7.4-5.7c1.2-1.3,2.2-2.9,3.5-4.2
	c0.9-1,1.9-1.8,2.8-2.8c1.9-2.2,3.2-4.7,5.2-6.9c1.7-1.9,3-4.1,3.8-6.5c0.5-1.2,0.7-2.5,1.2-3.8c0.9-1.8,1.6-3.6,2.2-5.4
	c0.7-3.2,1.3-6.6,1.9-9.8c1.2-6.1,0.8-12.4,0.8-18.7c0-5.3,0-10.5,0-15.8c0-3.1-0.3-6.1-1.1-9.1c-0.8-2.9-1.1-6-1.9-8.9
	c-0.7-2.6-1.5-5.1-2-7.8c-0.1-1.3-0.5-2.5-1.1-3.6c-0.8-1.3-1.8-2.3-1.9-3.9c0.1,0.6,0.1,1.3,0.1,1.9"/>
<path class="st0" d="M174.4,323l0.1-0.4c3.1,2,5.9,4.3,8.4,6.9c3.1,3.2,6.6,6.1,9.3,9.6c4.9,6.3,9.5,12.8,14.1,19.3
	c1.3,1.8,2.1,4,3.3,5.9c1.5,2.5,3,4.9,4.4,7.4c2.8,5.4,5.9,10.6,8.5,16c2.2,4.5,5,8.6,6.8,13.3c1.8,4.5,3.7,9,5.6,13.3
	c1.8,3.8,2.4,8,4,11.8c1.7,4.2,3.8,7.8,4.9,12.3c0.6,2.5,1.8,4.5,2.7,6.8s0.8,5.2,1.3,7.6c0.7,3.5,1.7,6.9,3,10.1
	c0.6,1.4,1.2,2.7,2,4c0.9,1.4,2.8,2.9,2.8,4.6"/>
<path class="st0" d="M247.7,470.4h-2"/>
<path class="st0" d="M245,469.7c-1-0.5-1.5-1.7-2.7-1.3"/>
<path class="st0" d="M243.7,467c0.4,1.1,1.2,2.1,2.2,2.7c1.4,0.8,3.3,0.4,4.8,0.7c0.8,0.2,1.6,0.5,2.5,0.6c2.6,0.3,6.5-0.9,8.8,0.5
	c3.2,1.8,3.5,8.7,1.5,11.5c-1.5,2.1-3.9,3.3-6.5,3.3c-2.4,0-4.8,0-7.1,0c-2.5-0.1-4.9-0.1-7.4,0c-0.9,0.1-1.7,0.5-2.4,1.1
	c-1.7,1.1-3.6,1-3.6,3.6"/>
<path class="st0" d="M253,473.7c-1,1.2-2.5,1.8-3.4,3.1c-1.1,1.7-1.2,5.4,0.6,6.5c3.1,2,5.7-4.1,6.1-6.4c0.4-2.1-0.5-4-3.1-2.7
	c-2.4,1.2-3.6,3.9-4.9,6.1"/>
<path class="st0" d="M239.7,499.7l0.1,0.5c0.9,0.1,1.8,0.2,2.6,0.1c1.7,0.1,3,1,4.5,1.7c2.8,1.3,6.9,1.7,10,1.6c1.5,0,3,0.1,4.5,0
	c1.1-0.1,2.1-0.4,3.1-0.6c1-0.2,2,0.1,3,0c1.5-0.4,2.9-0.8,4.4-1.4c1.7-0.6,3.4-1,5.1-1.3c2.2-0.2,3.9-1.4,6.2-1.4
	c1,0.1,1.9,0.1,2.9,0c1-0.2,1.8-0.7,2.8-0.7c2.2,0,2.7,1.3,3.8,2.8c1.9,2.6,3.5,6.5,0.9,9.2c-1.1,1.1-2.7,1.7-4,2.6
	c-1.1,0.9-2.5,1.6-3.9,2c-1.3,0.4-2.7,0.7-4,1.2c-2.4,0.8-4.7,0.9-7.1,1.6s-4.4,0.2-6.7,0.6c-0.9,0.1-1.6,0.6-2.5,0.7
	s-2.1-0.2-3.2,0c-2.3,0.4-4.8,1.1-7.1,1.3c-1.3,0.1-2.8-0.3-4.1-0.1c-1,0.2-1.8,0.7-2.8,0.7c-0.9-0.1-1.8-0.1-2.7,0
	c-1,0.2-1.1,0.7-2.3,0.7c-2.3,0.1-4.2-0.5-6.4-0.7c-1.8-0.1-6.2-2.1-6,1.3"/>
<path class="st0" d="M249.7,526.4l-0.6-0.2c0.1-0.5,1.9-1.1,2.5-1.3c2.8-1,5.9-0.8,8.8-1.6c4.1-1.1,8.2-2.2,12.3-3.6
	c2.8-1,5.7-1,8.5-2c1.2-0.4,2.4-0.8,3.6-1.2c1.7-0.6,3.3-1.3,4.9-2.1c2.3-0.9,4.8-1.3,7.2-1.4c1.3-0.2,2.6,0.2,3.7,1
	c1.4,1,2.9,1.5,4.4,2.3c1.9,1.2,3.3,2.9,2.5,5.3c-0.8,2.8-2.9,3.9-5.2,5.3c-3.4,2-6.9,3.8-10.6,5.2c-1.9,0.8-3.8,0.7-5.6,1.4
	s-3.3,1.9-5.1,2.5c-4.9,1.7-9.6,4.1-14.7,5.3c-1.9,0.5-4.3,0.2-6.3,0.2h-6.7c-1,0.1-2,0.1-3,0c-0.9-0.2-1.2-0.7-2.3-0.7s-2,0-3,0
	c-0.6-0.1-1.1-0.1-1.7,0c-0.5,0.1-0.9,0.5-1.4,0.6c-1.2,0.2-2.4,0.2-3.6,0.1c-1.3,0-1.6,0.4-2.6,0.7c-1.5,0.4-2.8-0.4-4.2-0.9
	c-1.6-0.6-2.7-0.5-3.9-1.8c-1.5-1.8-2.7-3.1-2.6-5.5c0-1.2-0.3-2.8,0.1-3.8c0.3-0.8,3.2-4.1,3.8-4c0.2,0.4,0.2,0.9,0.1,1.3"/>
<path class="st0" d="M265.7,542.4c2.6,0,5,0.9,7.5,0.7c3.3-0.2,6.3-1.6,9.5-2c3.1-0.6,6.1-1.4,9.1-2.5c1-0.3,2.1-0.5,3.1-0.8
	s1.8-1,2.8-1.4c2.2-0.9,4.4-1.6,6.7-2c1.3-0.1,2.7-0.1,4,0c1.9,0.2,1.5,1.1,2.8,2.1s1.9,0.5,2.7,2c0.6,0.8,1,1.7,1.2,2.7
	c0.3,2.3-1.9,4.5-3.6,5.3c-1.2,0.5-2.1,1.4-3.3,2c-1.4,0.8-3,1.2-4.4,2c-2,1-4.1,1.7-6.1,2.7c-1.6,0.8-3.5,0.9-5,1.8
	c-1.3,0.8-1.6,1.3-3,1.5c-1.5,0.3-2.9,0.9-4.4,1.2s-2.8,0-4.3,0.3c-1.9,0.4-3.8,0.5-5.6,0.5c-2.1,0-4.3,0-6.4,0
	c-2.1,0.1-4.3,0.4-6.3,1c-1.9,0.4-3.9,0.3-5.8-0.3c-0.7-0.1-1.4-0.3-2-0.6c-0.7-0.4-1.2-1.4-1.9-1.8c-0.9-0.5-2-0.5-2.9-1
	c-0.6-0.3-1-0.9-1.7-1.3c-0.8-0.4-1.6-0.8-2.4-1.3c-1.4-1-2.9-1.6-4.6-2c-0.9-0.2-2.1,0.3-3.1,0.1c-0.7-0.2-1.1-0.9-1.7-1.3
	c-0.4-0.2-0.8-0.1-1.2-0.4c-0.6-0.5-0.6-1.5-1-2.2c-0.9-1.5-1.4-1.7-1.4-3.5"/>
<path class="st0" d="M230.4,524.4c-1.8,0-2.2-2.8-3-3.9c-0.9-1.3-2.7-1.8-3.9-2.6c-1-0.7-1.8-1.6-2.5-2.6c-1-1.5-0.6-3.3-0.7-4.9
	c-0.1-1.5,0.6-3,1.7-4c0.4-0.4,0.8-0.7,1.2-1.1c0.6-0.9,0.2-1.2,0.5-2.2c0.1-0.5,0.7-0.7,0.8-1.3c0.1-0.9-0.5-1.1-0.7-1.7
	c-0.3-1.9-0.3-3.8,0-5.6c0.3-0.9,0.5-1.7,0.6-2.6c-0.1-1-0.3-2-0.6-3c-0.5-2.5,0.6-4.9,0.6-7.4c0.1-1.8,0.3-3.6,0.7-5.4
	c0.5-2.3,1.9-4.5,2-6.9c-0.1-0.9-0.1-1.8,0.1-2.6c0.3-1,1-1.7,1.2-2.7c0.4-1.7,0.9-3.4,1.6-5c1.1-2.7,2-5.4,2.7-8.2
	c0.7-2.9,1.2-6.6,2.8-9.4c0.8-1.4,2-1.9,2.2-3.6c-0.1-0.8,0-1.6,0.3-2.3c0.5-1,1.6-1.5,1.7-2.7"/>
<path class="st0" d="M262.4,558.4c-0.7,2.2,1.7,0.8,2.5,1.4c1.3,0.9,1.8,3.8,2.8,5.1c1.2,1.6,3.1,2,4.7,2.8c1,0.5,1.4,1.3,2.3,2
	c1.5,1.2,4.1,1.8,5.9,0.8c1.3-0.8,2.6-1.5,4-2c2-0.7,4-1.2,6-1.7c1.5-0.4,3.6-1.2,5.2-1.2c1.9,0,2.4,1.1,4.3-0.2
	c0.6-0.5,1.3-1,2-1.4c0.7-0.3,1.5-0.2,2.2-0.5c1.1-0.6,2.1-1.4,3-2.3c0.4-0.6,0.2-1,0.5-1.5c0.1-0.3,0.8-1,0.8-1.3
	c0-0.6-1.1-2.1-1.4-2.7c-2.1-3.6-6.1-0.9-9.2-0.6c-0.5,1.3-0.7,2.6-0.8,4"/>
<path class="st0" d="M286.4,501.7c-1.2-0.3-1.8,0.8-2.6,1.5c-2.1,1.6-4.3,2.5-6.1,4.5c-1,1.2-2.8,2.4-2,4.4c1,2.5,4.5,1.2,6.4,1
	s6.6,0.2,7.5-2.1c0.5-1.1,0.1-3.4,0-4.5c-0.1-2-1.1-1.5-2.9-1.5c-1.4-0.1-2.7-0.1-4.1,0c-2.5,0.3-3.5,1.3-5,3.3"/>
<path class="st0" d="M300.4,518.4c-3.4,0-5.9,0.9-7.9,4c-1.5,2.2-1.1,9.3,2.7,8.6c2.1-0.4,6.3-2.4,7.5-4.2c0.9-1.3,1.2-2.9,1-4.4
	c-0.9-4.8-7.8-4.1-10-0.7"/>
<path class="st0" d="M306.4,539.7c-3.5,0-6.8-0.1-9.4,2.8c-0.9,1.1-2.4,2.6-2.6,4s-0.2,3.4,1,4.2c2.2,1.5,4.4-1.1,6.3-2
	s3.6-1.5,4.4-3.7c0.7-1.8,0.8-3.5-1.3-4c-3.1-0.7-4.7,0.2-7,2"/>
<path class="st0" d="M302.4,559c-0.1-1.5-4.2-0.1-5,0.4c-2.3,1.3-2.6,5.4,0.3,5.7c3.4,0.4,8.2-2.1,9.3-5.5c0.4-1.3,0.1-2.6-0.9-3.5
	c-1.9-1.5-5.2,0.8-7,1.6"/>
<path class="st0" d="M641,446.4c-1.9-2.1-5.7,1.1-7.4,2c-2.3,1.2-4.9,2.6-5.8,5.3c-0.6,1.6-1.5,4.3-0.7,6c0.5,1.1,2.1,1.6,2.9,2.2
	c0.7,0.8,1.7,1.2,2.8,1.1c4.4,0.1,9-0.1,11.9-4c1.8-2.5,2-5.1,1.7-8.1c-0.2-1.6-1.2-3.1-2.6-3.9c-3.2-2.2-4.5,0.5-5.4,3.2"/>
<path class="st0" d="M647,465c-1.5-0.2-3.1,1.2-4.4,1.7c-2.1,0.9-4.7,2.5-7,2.9c-1.1,0.2-2.1-0.1-3.2,0c-1.2,0.2-2.4,0.5-3.7,0.7
	c-1.9,0.3-3.6,0.9-5.3,1.8c-3.2,1.7-5.6,2.9-5.2,6.9c0.3,3,4.7,3.7,7,4.7c1.8,0.7,3.7,1.3,5.7,1.8c2.3,0.6,5.1,0.1,7.5,0.1
	c4.5,0.1,8.9-0.4,13.2-1.6c2.8-0.9,5.9-2.3,7.3-5c0.6-1.2,0.5-2.7,0.8-4s1.1-3.7,0.4-5.2s-2.8-1.7-4.1-2.2c-1.5-0.5-2.6-1.7-2.9-3.2
	c-0.2-0.9-0.3-1.9-0.5-2.7c-0.1-0.8-0.3-1.7-0.5-2.5c-0.4-0.7-0.8-1.4-1.4-2C649.6,455.7,648.1,457.1,647,465z"/>
<path class="st0" d="M629,473c-1.1-0.1-2.2-0.1-3.3,0.1c-1.7,0.5-3.6,2.4-4.6,3.8c-2.4,3.3,3.5,7.6,6.6,7.4c3.9-0.2,6.4-3.5,5-7.3
	c-0.7-1.9-2-3.4-4.2-3.3s-4.3,3.1-5.5,4.6"/>
<path class="st0" d="M631,487.7l-0.1-0.6c-1.2-0.2-2-0.7-3.2-0.8s-2.3,0.1-3.5,0c-1.3-0.3-2.6-0.5-3.9-0.6c-2.4,0-5,0.3-7.3-0.1
	s-4.3,0.1-6.7,0.2c-1.6,0-2.9-0.6-4.5-0.7c-1.8-0.1-2.6,0.6-4.1,1.4c-1.3,0.6-2.5,0.9-3.5,2c-1.5,1.6-1.8,3.2-1.8,5.4
	c0,1.8-0.1,2.6,1.3,4c1.7,1.7,2.8,1.6,5,2c0.9,0.2,1.6,0.9,2.5,1.1c1.1,0.3,2.2,0.5,3.3,0.7c1.5,0.3,3-0.1,4.5,0.3
	c1.1,0.3,2.2,0.9,3.3,1.2c2.1,0.7,3.9,0.5,6.1,0.6c1.5,0.1,2.7,0.7,4.3,0.7c3.3,0,6.7,0,10,0c1.7,0,3.3,0,5,0c0.8,0,1.6-0.1,2.3-0.3
	c0.8-0.2,1.6-0.1,2.4-0.3s0.9-0.6,1.6-0.7c0.8-0.1,1.6-0.1,2.4,0c2.2,0,3.7,0.2,1.3,2"/>
<path class="st0" d="M599.7,490.4c-1.5,0-1.5,0.3-2.6,0.9c-1.6,0.8-2.7,0.8-3.9,2.3c-3.3,4.1,3.8,5.3,6.6,4.8
	c2.1-0.4,6.3-3.9,4.9-6.3c-1.1-1.9-2.6-2.3-4.6-2.3c-3.3-0.1-3.8,0.2-5,3.4"/>
<path class="st0" d="M629.7,506.4c-2.9,0-3.8,0.9-6,2.5c-1.9,1.3-4,2.3-6.3,2.8c-2.4,0.5-4.5-0.6-6.8-0.7c-1.2,0-2.4,0.1-3.6,0
	c-1.4-0.1-2.6-0.7-4-0.7s-2.4,0.6-3.7,0.7c-1.7,0.2-1.5,0.2-3,1.3c-2,1.5-4.4,2.2-4.7,5c-0.2,1.4,0,3.5,1.2,4.5
	c1.3,1.2,5,0.3,6.7,0.5c1,0.1,1.2,0.5,2.1,0.7c1.2,0.3,2.5-0.5,3.7-0.7c3.8-0.6,7.6,1.9,11.2,2.5c1.7,0.3,3.2-0.6,4.9-0.6
	s3.3,0.7,5,0.7c2,0,3.8,0.1,5.5-0.8c2-1,4.1-2.3,6.1-3.6c1.2-0.8,2.3-1.7,3.4-2.5c1.4-1,2.8-2,4.1-3.2c1-1.1,1.9-2.2,2.6-3.5
	c0.4-0.6,0.7-1.2,1.2-1.8c0.6-0.8,0.8-0.8,1-1.7c0.1-0.5-0.2-1,0.1-1.5c1-2,3.4-1,4.8-2.2c0.4-0.4,0.7-0.8,1-1.3
	c0.5-0.6,1.6-0.9,1.9-1.5s0.1-2.3,0.1-3.2c0-2.1,0.4-4.6-0.2-6.7c-0.2-0.9-0.9-2-1-2.8c-0.2-1.3-0.2-2.6-0.2-3.9"/>
<path class="st0" d="M603.7,515c-1.3,0-2.3-0.2-3.5,0.6s-2.9,2.5-2.6,4.1c0.7,4.4,11.6,1.7,11.8-2c-1.1-1.1-3.5-1.8-4.9-2
	c-2.9-0.4-4.2,1.3-6.2,3.3"/>
<path class="st0" d="M608.4,525c-3.9,0-11.1,1.2-11.3,6c-0.1,0.9-0.1,1.8,0,2.7c0.3,1.4,0.9,1.1,2,1.5c1,0.5,2.2,0.5,3.2,0
	c1-0.4,2.1-0.7,3.2-0.9c1.5,0.1,3-0.1,4.4-0.6c1.9-0.7,3.7-1.6,5.7-2.2c2.2-0.7,4.5-1.1,6.8-1.1c2.3,0,3.5,0.1,5.3-1.2
	c0.5-0.4,1-0.9,1.3-1.4c0.4-0.7,1.8-2.5,1.7-3.3l-1-0.1"/>
<path class="st0" d="M703.7,266.4c-3.2-0.9-4.1,7.9-4.6,9.4c-0.8,2.2-2.3,3.9-3.3,5.9c-0.6,1.4-1.1,2.9-1.5,4.4
	c-1,2.8-2.5,5.4-4.2,7.8c-1.6,2.4-1.9,5-3.1,7.5c-0.9,1.9-2,3.8-2.7,5.8c-2.3,6.1-3.5,12.6-6,18.7c-0.9,2.3-1.9,5-3.5,7
	c-1.4,1.6-2.4,3.5-3,5.5c-0.8,2.6-2.1,5-3.7,7.2c-1.2,2-2.3,4-3.2,6.1c-0.9,2.1-2.5,4-3.4,6.1c-0.4,1.1-0.5,2.3-0.9,3.4
	s-1.2,2.2-1.7,3.3c-1.5,3.2-3.1,6.3-3.9,9.8c-0.5,2.5-1.2,5-2.1,7.4c-1.8,4.8-3.3,9.7-4.5,14.7c-0.7,2.7-0.6,5.5-1.3,8.1
	c-0.6,2.2-1.5,4.3-2,6.5c-1.1,4.9-1.7,9.5-3.5,14.2c-1.2,3-3,6-3.9,9.1c-0.5,1.7-0.9,3.1-1.5,4.6c-0.3,0.9-0.7,1.9-1.2,2.7
	c-0.6,1-1.4,1.9-2,2.8c-1.4,2-2.5,4.2-3.3,6.5c-0.8,2.3-2,4.4-2.8,6.6c-1,2.4-1.9,4.8-2.5,7.3c-0.5,2.5-1.1,5-2,7.4
	c-0.8,2-1.8,4-2.7,6c-0.5,1.1-0.8,2.3-1.3,3.4c-0.6,1.2-1.8,1.5-2.6,2.7l0.4,0"/>
<path class="st0" d="M310.4,553c1.1-0.4,1.6,0.8,2.3,1.4c2.3,1.8,4.8,3.2,7.6,4c4.2,1.5,8.3,3.4,12.7,4.4c3,0.8,6.1,1.3,9.2,1.5
	c2.7,0.1,5.6,0.5,8.2,0.8c6.3,0.8,12.5-0.7,18.9-0.8c6-0.1,11.9-1.2,17.8-2.2c5.5-0.9,10.9-1.7,16.3-2.8c8.9-1.8,16.6-7.8,23.3-13.7
	c1.6-1.3,3.1-2.9,4.4-4.5c0.8-1.2,1.7-2.4,2.6-3.5c1.5-1.5,4.6-3.7,6.7-4c1.8-0.1,3.5,0.4,5,1.4c2.2,1.2,4,2.9,6.2,4.1
	c3.9,2.1,7.5,4.6,11.3,6.9c2.9,1.7,6,2.9,9.2,3.6c2.6,0.7,4.7,2.2,7.2,2.9c5.3,1.7,10.7,3.1,16.2,4.2c6,1.1,12.1,1.6,18.2,1.5
	c3.5,0.2,7.1,0.1,10.6-0.1c3.5-0.4,6.8-1.5,10.2-2c5.9-0.9,11.6-2.6,16.9-5.3c5.7-3,11.9-4.9,17.5-8c1.6-0.8,2.8-2.1,4.4-2.9
	c1.4-0.7,2.9-1,4.2-1.7c3-1.5,5.9-3.2,9-4.7c2-0.9,4.1-1.8,6-2.8c1.7-0.9,5.4-2.2,5-4.6"/>
<path class="st0" d="M433,474.4c0.4,1.4-1.4,2.3-2.2,3.1c-0.7,0.7-1.3,1.5-1.7,2.3c-0.5,1.4,0.4,1.9,0.6,3.2"/>
<path class="st0" d="M440.4,479.7c-0.4,1.4,3,7.3,4,7.3"/>
<path class="st0" d="M449,472.4c0.4,2.1,5.8,2.8,7.3,2.7"/>
<path class="st0" d="M448.4,461.7c2,0.3,5.1-1.9,6.7-2.7"/>
<path class="st0" d="M428.4,460.4c-0.9-0.2-1.2-1.2-1.9-1.8c-1.2-1-3-1.1-4.1-2.2"/>
<path class="st0" d="M363.7,337c1-0.5,2.2-0.8,3.4-0.7c3.2,0.1,6.3-0.2,9.4-1.1c3.1-0.9,6.3-1.6,9.2-3c3.6-1.8,6.7-4.5,10-6.7
	c1.6-1,3.3-1.9,4.8-3.1s2.4-2.5,3.8-3.6c2.2-1.8,4.5-3.5,6.9-5.1c2.4-1.6,4.8-3.1,7.3-4.5c2-1.1,4.3-1.4,6.5-2.2
	c1.1-0.4,2.3-1.2,3.4-1.3"/>
<path class="st0" d="M452.4,306.4h-0.4c1.8,1.2,4.2,1.4,6.2,2.2c3.7,1.5,7.1,3,10.6,4.9c2.2,1.1,4.2,2.5,6.4,3.6
	c1.4,0.6,2.8,1.3,4,2.2c0.3,0.8,0.8,1.5,1.6,1.9c0.6,0.4,1.3,0.7,2,0.9c2.2,0.8,4.5,1.3,6.7,2c1.5,0.5,2.5,1.5,4,1.7
	c1.3,0.1,2.7,0.1,4,0c0.7,0,5.8-0.6,3-2"/>
<path class="st0" d="M542.4,277.7c-0.7-0.2-2,0.5-2.7,0.8c-0.9,0.4-1.7,1.2-2.1,2.1c-1.3,2.4-0.9,5.4,2.1,6.3c1.5,0.5,3,0,4-1.2
	c0.8-0.8,2.8-2.9,2.7-4c0-1.5-1.7-2.5-2.8-2.9c-2.2-0.9-3.3-0.2-5.3,1"/>
<path class="st0" d="M552.4,282.4c0.7-1.4,1.3-3.2-0.1-4.5c-0.6-0.6-1.4-0.9-2-1.5c-0.8-0.7-1.3-1.6-2.5-1.9c-2.5-0.6-5-0.9-7.5-0.8
	c-2.5,0.1-6.4,0.4-8.5,2s-3.9,5-4.5,7.4c-0.4,1.5-0.6,4.8,0.5,6c2.4,2.6,11,4.4,13.4,1.3"/>
<path class="st0" d="M323,296.4c-0.7-2.3,4.9-1.5,5.9-0.7c1.1,0.9,1.7,7.5-0.6,6.7"/>
<path class="st0" d="M319.7,293l-0.6,0.4c-1.2-3.3,6.1-4.4,7.9-4.5c4.2-0.2,9-0.3,11.4,4c1,1.8,0.3,3.6,0.7,5.5
	c0.6,1.7,0.5,3.6-0.3,5.3c-0.3,1.2-0.9,2.4-1.6,3.4c-1,1-4.1,2.4-5.5,1.7l-0.1-0.6"/>
<path class="st0" d="M402.4,338.4h-0.4c0.9-0.3,1.3-1,2-1.4c1.5-0.7,3.3-0.9,4.9-0.7c3.5,0.2,6.9,0.7,10.3,1.6
	c1.9,0.4,3.6,0.2,5.5,0.5c1.5,0.4,3.1,0.6,4.7,0.7c3.8,0,6.4-0.3,9.8-2s6.5-3.7,10-5.2c3.2-1.4,7.1-1.5,10.5-2
	c3.6-0.5,7.3-0.3,10.8,0.7c1.8,0.6,3.6,1,5.5,1.3c2.6,0.4,5.8,0.7,4.5,3.9"/>
<path class="st0" d="M425,322.4c-1-0.3-1.3,0.4-2,0.8c-1.7,0.8-3.5,1.4-5.4,1.9c-2.7,0.7-5.5,1.1-8,2.5c-2.2,1.3-4.3,2.7-6.2,4.3
	c-3,2.3-6.4,4.1-10,5.3c-2.1,0.8-4.3,1.1-6.3,2c-1.7,0.7-2.6,2.2-4,3.3"/>
<path class="st0" d="M457.7,319.7l-0.6,0.1c0,2,6,4.3,7.2,4.9c4.7,2.3,11.1,3.9,16.3,2.3H479"/>
<path class="st0" d="M304.4,273c-1.9,0.4-0.8,3.5-2.5,4c-1.4-2.1-0.9-5.2-0.9-7.5c0-4.5,0.1-8.8,3.2-12.5c1.6-1.8,3.5-3.3,4.9-5.3"
	/>
<path class="st0" d="M305,281c1.2-1.1,0.9-5.2,1.2-6.3c1.3-5.8,4.5-9.2,8.8-13"/>
<path class="st0" d="M551.7,276.4c0-2.1-0.7-2.2-2-3.8s-2-3.1-3.2-4.6s-2.4-2.4-3.4-3.7c-1.6-2.1-2.6-4.3-5.2-5.3
	c-2-0.8-3.9-2.1-5.4-3.7c-2.8-2.7-3-5.8-4.8-9"/>
<path class="st0" d="M545,265c-0.2-1.4,0.8-2.4,1.2-3.6c0.9-3.7,1.5-7.5,1.8-11.3c0.5-3.1,0.3-6.2-0.5-9.2c-1-3.5-1.9-6.3-1.9-9.9"
	/>
<path class="st0" d="M294.4,193.1c-0.5,0.1-0.8,0.3-1,0.8c0.6-0.5,0.5-1.3-0.2-1.5s-3.2,1.1-3.9,1.4c-2.3,1-4.4,0.5-7,0.6
	c-3.5,0.2-5.9,1.8-8.5,3.9c-2.6,1.8-5,4-7,6.5c-3,4.2-5.7,8.7-8,13.4c-0.8,1.5-1.6,3-2.4,4.6c-0.4,0.7-1,1.1-0.6,2.1
	c0.3,0.8,1.9,1.8,2,0.3"/>
<path class="st0" d="M378.4,13.7c5.5,0.1,9.2,4.5,12.3,8.7c1.2,1.5,2.2,3.2,3,5c1,2.5,0.7,5.3,0.7,8c0,2.2-0.2,4.8,0.8,6.9
	c0.6,1.3,1.5,1.3,2.5,2.1s0.6,1.1,0.7,2.3c0,1.6,0.7,2.9,0.7,4.7c0,1.9-0.8,3.7-2.1,5.1c-1.1,1.2-1.9,2.7-2.9,3.9
	c-1.3,1.3-2.7,2.4-4.2,3.3c-4.2,3-8.6,5.8-12.9,8.7c-2,1.3-3.9,2.8-5.8,4.3c-1.3,1.1-1.2,2-1.8,3.6c-0.6,1.8-1.9,3-2.7,4.7
	c-0.7,1.7-1.2,3.6-1.5,5.5c-0.6,3.5-1.1,7.1-1.6,10.6c-0.7,4.6-0.4,9.2-1,13.9c-0.6,4.4-0.9,8.8-0.8,13.3c0,2,0,3.9,0,5.9
	c0,2.2,0.4,4.9-0.1,7.1c-0.7,3.1-3.1,5.7-4.6,8.4c-1.9,3.6-2.6,7.3-3.5,11.2c-0.8,3.2-0.6,8.3,2.7,9.7c2.4,1,3.7,3.2,5.1,5.4
	c2.1,3.2,1.3,5.8,1.6,9.4c0.4,4.3,5,4.6,7.3,7.8c0.7,1.2,1.3,2.6,1.8,3.9c0.7,1.9,1.2,3.8,1.5,5.8c0.5,2.8,0.5,5.7,0.1,8.5
	c-0.6,3-3.1,6.1-5.2,8.2c-1.2,1.1-2.4,2.3-3.5,3.6c-0.8,1-1.2,2.3-2.6,2.6c-1.8,0.3-3.4-1.6-4.8-0.2c-1,1-1.6,3.5-2.2,4.8
	c-0.3,0.5-0.6,1-0.9,1.5c-0.3,1,0.2,2.1-0.1,3.2c-1.1,2.9-6.8,3.9-9.3,3c-1.3-0.3-2.4-0.9-3.5-1.8c-1.1-1-0.9-1.8-2.5-1.9
	c-2.5-0.2-4.3,3.3-6,4.7s-3.1,2.6-4.6,3.9s-2.9,2.6-4.8,1.8c-0.7-0.5-1.4-1-2.1-1.6c-1.2-0.9-3.1-1.4-4.2-2.4
	c-1.8-1.6-1.1-4.6,0-6.6c1.1-2.1,7.3-5.9,2.1-7.7c-1-0.3-3-0.3-3.8,0.5c-1.1,1.1-0.6,3.4-0.6,4.7c0,2.3-0.1,4.5-0.5,6.7
	c-0.3,1.6,0.1,3.3-0.8,4.8c-1.6,3.1-3.8,2.7-6.1,1c-1.2-1-2.1-2.3-2.5-3.9c-0.8-1.7-1.4-3.4-2-5.2c-0.3-1.4-1-3.5-0.8-4.9
	c0.2-1.6,1.5-3.6,2.4-4.8c0.4-0.5,1.5-1.6,1.6-2.2c0.1-1.1-0.7-2.1-1.8-2.2c0,0,0,0-0.1,0c-1.2,2.3-3,4.4-4.4,6.6
	c-0.9,1.4-2,6.1-4.2,5.2c-0.8-0.3-1.2-1.8-1.4-2.4c-1.2-3.5-2.2-7.3-3-10.9c-0.7-3.1,0.2-5.8,1.2-8.8c1.6-4.9,1.7-10.2,0.4-15.1
	c-0.2-0.7-1.2-3.8-1.7-4c-0.7-0.2-2.4,1-3.1,1.2c-1.3,0.3-2.5,0.9-3.5,1.7c-1.8,1.2-3.7,2.2-5.7,2.9c-1.9,0.6-3.7,2-5.7,2.2
	c-1.9,0.3-3.8,0.7-5.7,1.2c-1.9,0.4-3.5-2.2-4.3-3.9c-1-2.1-0.5-5.6-0.4-8c0.2-3,1.2-5.8,3.1-8.1c1.8-2.2,4-4.6,6.8-5.5
	c4.9-1.5,11.5,0.2,14.9-4.4c2-2.8,3.9-5.9,4-9.4c0.1-2.8,1.7-5.1,1.4-7.9c-0.2-1.9-0.8-3.7-1.7-5.3c-0.6-1.1-1.1-1.4-0.7-2.7
	c1.3-3.9,4.7-6.9,6.9-10.2c0.9-1.3,1.8-3.1,1.5-4.8s-1.7-3-2.3-4.5c-0.7-1.7-1.4-3.6-0.7-5.3c1.1-2.6,4.2-4.7,6.1-6.7s3.1-3.3,3-5.9
	c-0.1-1.7-0.5-3.4-1-5c-0.9-3.2-0.5-6.7,1.1-9.6c2.1-3.2,4-6.6,5.5-10.1c1.2-3.1,1.6-6.3,3.1-9.3c1.1-2.1,1-4.6,1.7-6.8
	c0.5-1.7,1.5-3.3,1.9-5c0.6-2.2,0.2-4.2,0.2-6.4c0.1-3.8,3.9-6.3,5.5-9.6c1.7-3.2,3.8-6.2,6.1-9c2.2-2.7,4.7-5.4,7.1-7.9
	s3.6-6.2,6.1-8.9c1.6-1.7,3.6-2.9,5.2-4.5c0.8-1,1.8-1.8,2.8-2.6c3.3-2.1,7.5-3.3,11.2-4.4c2.7-0.8,5.5-1.1,8.3-1
	c2,0,4.1-0.3,5.8,0.5c0.9,0.4,2,0.7,2.9,1.2s0.5,1,1.1,1.5s2.2,0.3,3,0.9C384.9,14.4,379.6,17.3,378.4,13.7z"/>
<path class="st0" d="M405,43.7c-1.8,0-2.9-0.5-2.4,1.6c0.8,2.5,1.8,4.8,3.1,7c0.8,1.3,2.1,2.2,3,3.4c0.9,1.5,1.9,2.9,3,4.3
	c2.7,2.9,6.7,4.5,10,6.6c2.4,1.5,4.4,3.4,6.6,5.1c1.6,1.2,3.6,1.7,5,2.9c2.1,1.8,3.8,3.9,5,6.4c1.5,2.9,3.1,4.7,3.3,8
	c0.2,2.5,0.7,5,1.8,7.3c1.7,3.3,5.6,5.8,8.7,7.5c1.8,1,3.9,1.5,5.3,3.2c0.7,0.8,1.4,1.7,1.9,2.7c0.7,1.4,1.2,3,1.4,4.6
	c0.3,1.9-0.4,3.5-0.4,5.4c-0.1,2.3-0.5,5.6,0.2,7.9c0.5,1.9,2.1,3.1,2.5,5.1s0,4.3,0,6.3c0,3.2,0.5,6.9-0.1,10
	c-0.7,3.5-2.8,6.8-3.6,10.4c-0.3,1.4-0.1,2.9-0.4,4.3c-0.4,1.5-0.9,3.1-1.4,4.5c-1.1,3.4-4.2,4.8-4.5,8.6c-0.1,2.2,0.4,4.3,1.5,6.2
	c0.6,1.2,1.4,3.4,3.1,3.4c0.5,2.6,2.1,5,2.2,7.7s-1.6,5.3-3.4,7.2s-3.5,3.3-3.5,5.9s1.7,4.4,3,6.6s2.4,2.9,5,3
	c3.4,0.1,6.6-2.1,8.1,2.3c1,2.8,0,5.8,1.9,8.3c1.8,2.5,4.8,3.4,7.3,5c1.1,0.9,2.4,1.4,3.8,1.4c1.7,0.1,3.5-0.3,5.1-0.3
	c2.7-0.1,6.6-2.4,9.2-1.4c3.7,1.3,3.9,9.2,8.8,8.9c1.9-0.1,5.5-3.3,7-4.2c1.7-1,3.4-2,5.1-3c3.3-2,5.4-5.2,8.1-8
	c1.3-1.3,2.6-4,2.3-6c-0.5-1.6-1.3-3-2.4-4.3c0.6-0.1,1.2-0.1,1.8,0c1-0.1,1.9-0.5,2.7-1.1c1.7-1.1,4.5-2.4,5.8-3.9s0.9-3.4,0-5.2
	c-1.3-2.8-2.3-5.3-4.8-7.2c-1.6-1.3-4.9-2.6-6-4.5c-0.3-0.6-0.5-1.2-0.6-1.9c-1-3-0.1-6.3,2.3-8.3c1.7-1.4,3.8-1.4,5.8-1
	c1.5,0.2,4.3,1.4,5.5,0.1c1.5-1.6,0.8-5.8-1.3-6.4c-0.2-2.8,3.3-3.2,5.3-3.2c1,0,2,0.1,3,0.1c1.6-0.1,2.6-0.9,4-1.7
	c4.3-2.6,1.7-10.7-1.2-13.8c-2-2.1-3-4.4-6.2-4.5c-2.1-0.2-4.2-0.1-6.2,0.1c-2.3,0.5-5,2.4-7.1,1.5c-2-0.8-3.9-3.2-3.7-5.4
	c0.2-3.2,3.9-6.4,6.1-8.5s2.2-3.9,1.5-6.9c-1-4.4-4.1-5.4-7.9-6.8c-2.8-1-4.8-2.9-7-4.7s-5.1-2.6-7.1-4.6c-2.6-2.8-5-5.8-7.2-9
	c-1.9-2.5-2.4-5.5-4-8.1c-1.7-2.7-4.1-4.9-7-6.3c-2.8-1.3-3-3.7-3.7-6.7c-0.3-1.3,0-2.5-0.2-3.8c-0.2-1.7-1.8-3.1-2.9-4.3
	c-1.9-2.1-2-4.7-2.5-7.4c-0.9-5.4-3-10.4-8-13.3c0.1-0.9,0.6-1.3,0.7-2.3c0.2-3.4-1.9-6.8-4.1-9.1c-1.3-1.5-2.9-2.7-4.6-3.5
	c-0.9-0.3-2-0.3-3-0.6c-1.6-0.4-3-1.4-4-2.6c-1.5-1.7-3.1-3.2-4.8-4.7c-1.5-1.2-3.2-2.1-3.5-4.2c-0.2-1.4,0-2.6-0.6-4
	c-0.9-2.4-2.3-4.7-4.1-6.6c-1-1.1-2.4-1.7-2.7-3.1s-0.4-2.4-1.9-3.5c-4.1-2.6-9-3.4-13.7-2.5c-1,0.2-2,1-3,1.1
	c-1.8,0.2-3.9-1.5-5.4-2.4c-1.4-0.5-2.6-1.4-3.6-2.4c-0.5-0.8-1.1-1.6-1.8-2.3c-1.7-1.6-3.7-2.7-6-3.1c-2.1-0.4-4.2-1.7-6.4-1.9
	c-3.8-0.4-8.4,3.6-10.2,6.7c-0.6,1.1-1,2.3-1.3,3.5c-0.5,1.7,0,2.8,0.5,4.2c0.4,1.6,0.8,3.1,1.4,4.6c0.7,1.6,1.9,2.8,2.5,4.5
	c1.3,3.2,3.8,5.9,4.3,9.2c0.3,1.8,1.3,3.6,1.7,5.3c0.2,0.8,0.4,1.6,0.7,2.3c0.8,1.7,2.7,2.2,3.6,3.6C404.4,45,403.7,45,405,43.7z"/>
<path class="st0" d="M547.7,171.7l0.1-0.6c1.1-0.3,2.2-0.3,3.2-0.1c0.9,0.2,1.5,1.2,2.3,1.6s1.9,0.2,3,0.5c0.8,0.3,1.5,0.7,2.1,1.2
	c1.8,1.1,4,1.7,5.5,3.3s3.4,3,5.1,4.6c1.9,1.9,3,4,5.4,5.4c2,1.2,2.7,3.5,4,5.3c1.7,2.4,2.3,4.6,3.4,7.3c0.8,2,2.2,3.4,2.8,5.5
	c0.5,1.9,1.3,3.6,1.8,5.5c1,3.4,1.9,6.9,2.5,10.4c0.2,1.2,0,2.4,0.2,3.6c0.2,0.9,0.6,1.2,0.6,2.4c0,2.2,0.6,3.7,0.7,6"/>
<path class="st0" d="M391.7,379v-0.4c0,1.8,0.1,3.7,0,5.6c-0.1,1.4-0.7,2.7-0.8,4.1c0.1,2.3,0.5,4.5,1.4,6.6c1.2,3.2,2.3,7.2,4,10.1
	c1.5,2.2,2.8,4.4,4,6.8c0.5,0.9,1.2,1.8,1.9,2.6c0.6,0.8,0.8,1.8,1.5,2.7c1.6,2.2,3.1,4.4,4.6,6.6c1.3,1.9,2.9,3.5,4.7,4.9
	c3.7,2.8,3.6,7,2.6,11.2"/>
<path class="st0" d="M479,371.7c0,4.4,1.4,8.8,1.3,13.2c0,5.3-1.4,10.3-2,15.5c-0.3,2.5-1.3,4.9-1.9,7.4c-0.4,1.8-0.6,3.5-1.2,5.3
	c-0.8,2.5-2.2,4.8-2.9,7.3s-2.1,6.9-4,8.6"/>
<path class="st0" d="M405.7,355.7c0.1-2.4,3.3-3,5-3.7s3.3-2.4,5.3-2.9s3.8-0.7,5.7-1.1c6.3-1.4,12.7-0.9,19.1-1
	c2,0,3.7,0.7,5.8,0.7s4.2,0,6.3,0c2.5,0,5,0,7.5,0c3,0,7.3-1.1,9-3.9l-0.4-0.1"/>
<path class="st0" d="M443.7,364.4c-0.2,0.9,0.3,1.2,0.8,1.8c1.2,1.2,2.3,2.5,3.2,3.9c2.3,4.2,4.3,8.6,6,13.1
	c0.7,1.7,0.5,3.4,0.8,5.2c0.2,1.3,0.7,2.6,1,4c0.9,4.1,0.1,9.2,0.1,13.4"/>
<path class="st0" d="M427,365c-1.9,2.1-3.2,6-4,8.5c-1.2,3.9-1.8,8-2.7,12c-1.3,5.5-2,11.1-2,16.8"/>
<path class="st0" d="M437,495.7c0.1,3.4,0.5,6.7,1.1,10c0.5,3.3,1.3,6.4,1.6,9.8c0.1,1.7,0.3,3.4,0.7,5c0.3,1.1,1.1,2.1,1.2,3.2"/>
<path class="st0" d="M786.4,150.4c2.9-1.4,7.3-1.8,10.7-1.4c2.7,0.4,5.2,1.5,7.3,3.3c0.4,0.4,1.6,1,1.9,1.5s-0.1,1.2,0.1,1.9
	c0.2,0.8,0.6,1,0.7,1.9c0.1,0.7,0.1,1.3,0,2c-0.5,3-1.6,5.9-3.3,8.4c-1.6,2.6-4.1,4.1-6.7,5.6c-4,2.2-8.5,3.4-13,3.4
	c-2.2,0.1-4.4,0-6.6-0.3c-1.4-0.2-2.6-0.7-3.9-1.1c-1.6-0.4-2.7-1.8-4.1-2.6c-3-1.7-4.5,0.5-6.3,2.7"/>
<path class="st0" d="M47.7,330.4c-1.6-1.2-1.5-2.1-0.7-3.5c1.6-2.9,2.1-5,5.1-6.9c2.2-1.4,4.8-1.1,7.2-2.4s5-2.9,7.8-3.2
	c5.8-0.6,10.1-5.8,13.5-10c1-1,1.8-2.1,2.6-3.3c0.7-1.5,0.5-2.5,0.6-4c0.1-1.8,0.9-3.6,0.8-5.4c-0.2-3-1.5-5.8-3.5-8"/>
<path class="st0" d="M364.7,128.4c-0.1-0.2-0.2-0.4-0.3-0.6c0.3-0.3,0.5-0.7,0.7-1.1c0.4-0.6,0.5-0.5,1.1-0.9c1-0.6,1.9-1.7,3.2-1.8
	s2.3-0.8,3.5-1c0.5,0,1,0.1,1.5,0.3c0.7,0.1,1.4,0.1,2.1,0.1c1,0.1,2,0.4,2.9,1c0.4,0.2,0.8,0.5,1.2,0.8c0.4,0.1,0.8,0.2,1.2,0.3
	c0.2,0,0.3,0.3,0.5,0.3s0.6,0,0.9,0s0.5,0.3,0.8,0.3s0.5-0.1,0.7,0c0.6,0.2,1.1,0.3,1.7,0.3c0.7,0,2,0.6,2.5,0.1l-0.2-0.1"/>
<path class="st0" d="M365.7,131.4c0.1,0.6,1.9,1.4,2.4,1.7c0.7,0.4,1.5,0.6,2.2,1s1.1,1,2.1,1c1.9,0.2,3.5-0.6,5.3-0.7
	c0.4,0,0.8-0.1,1.2-0.3c0.5-0.2,0.9-0.2,1.4-0.4c1.1-0.5,2.1-1.1,3.1-1.9c0.9-0.6,1.8-1.1,2.7-1.7c0.7-0.5,1.9-1.4,2-2.4"/>
<path class="st0" d="M370,125.4l-0.3,0.1c0,0.4-0.3,0.6-0.4,0.9c-0.1,0.6-0.1,1.3,0,1.9c0.1,1.3,0.8,2.4,1.9,3.1
	c1.7,1.3,3.9,1.5,5.8,0.6c1.8-1,3.5-2.9,3.7-4.9c0-0.8-0.3-1.6-1-2.1c-0.4-0.5-0.9-1-1.6-1.2c-0.8-0.3-1.6-0.5-2.5-0.7"/>
<path class="st0" d="M373.7,125.4c-0.6,0.4-0.3,1.4-0.3,2.1c0,1.1,0,1.7,1.3,1.9c1.7,0.2,1.2-1.2,0.9-2.2c-0.2-0.6-0.1-1.1-0.7-1.2
	s-1.3,0.4-1.8,0.7"/>
<path class="st0" d="M412.4,126.1c0.2-0.5,0.3-1.1,0.3-1.7c0-0.7,0.2-1.3,0.5-1.9c0.4-0.9,1-1.4,1.4-2.2c0.4-1,1.2-1.7,2.1-2.3
	c0.7-0.6,1.3-1.2,1.8-1.9c0.8-0.8,1.8-1.5,2.8-2c1.3-0.8,2.7-1.4,4.1-1.9c1.2-0.3,2.4-1,3.6-1.3c1.3-0.2,2.6,0,3.9,0.4
	c1,0.3,1.9,0.9,2.9,1.2c0.5,0.2,1.1,0.2,1.6,0.4s0.8,0.6,1.3,0.7"/>
<path class="st0" d="M413.4,125.1h-0.2c0.7-0.1,1.3,0.4,1.9,0.7c1.9,0.6,4,0.6,6,0.1c2.5-0.6,5-1.6,7.2-3c1-0.8,2.1-1.5,3.3-2.1
	c1.1-0.6,2-1.4,2.9-2.3c0.9-0.8,1.8-1.6,2.7-2.3s2.4-1.9,2.8-3.2l-0.5,0.2"/>
<path class="st0" d="M422,115.1c-0.8-0.2-1.1,0.8-1.3,1.3c-0.6,1-0.9,2.1-0.9,3.3c0.3,2.6,4.2,3.2,6,2.5c2.4-1,3.7-3.5,3.1-6
	c-0.3-1.3-1.1-2.3-2.3-2.8c-0.8-0.3-1.7-0.4-2.5-0.1c-1,0.4-1.2,1.2-1.9,1.9"/>
<path class="st0" d="M422.7,117.1l-0.3,0.1c-0.3,0.8-0.1,1.6,0.3,2.3c0.4,0.3,0.8,0.5,1.3,0.6c0.7,0.1,0.8-0.1,1.2-0.6
	c0.7-0.8,1.8-2.1,1.1-3.3c-0.4-0.4-1-0.6-1.6-0.4c-1.1,0.3-1.1,1.4-2,2.1"/>
<path class="st0" d="M392.7,152.4c0-1.1-1.7,1-1.9,1.3c-1,0.9-2.2,1.9-2.4,3.4c-0.2,2.1,2.8,3.7,4.5,4.2c1.6,0.3,3.2,0.4,4.8,0.2
	c0.7-0.2,1.3-0.3,2-0.3c0.9-0.1,1.9,0.1,2.7,0.6c0.8,0.5,1.7,0.8,2.6,1c0.4,0.1,0.8,0,1.2,0.1c0.5,0.2,1,0.3,1.5,0.3
	c0.8,0,1.7,0,2.5,0c0.8-0.1,1.5-0.5,2.1-1.1c1.2-0.9,1.6-2.6,2.8-3.5c0.7-0.4,1.4-0.7,2.2-1c0.6-0.1,1.1-0.3,1.6-0.6
	c0.5-0.4,1-0.8,1.5-1.2c1-0.6,1.7-1.5,2-2.6c0-0.4,0-0.9,0.1-1.3c0.1-0.5,0.3-0.7,0.2-1.3c-0.2-1.1-1-1.9-2-2.3
	c-1-0.5-2-0.7-2.9-1.2c-1.3-0.7-2.8-0.9-4.3-0.8"/>
<path class="st0" d="M410,112.7c4.2-5.3,10.7-8,16.4-11.3c0.6-0.3,1.2-0.5,1.8-0.8c0.6-0.4,1.2-0.7,1.8-0.9c1.1-0.1,2.1-0.1,3.2,0
	c1.1-0.1,2.3-0.1,3.4,0c0.8,0.1,1.1,0.5,2,0.3s1.9-0.3,2.9-0.5l0.1,0.2"/>
<path class="st0" d="M385.7,118.4c0.2-0.6-0.5-1.3-1-1.6c-1.2-0.6-2.4-1.1-3.6-1.5c-1.2-0.4-2.5-0.6-3.7-1s-2.3-0.2-3.5-0.4
	c-1.8-0.4-3.7-0.4-5.5,0c-0.8,0.2-1.5,0.2-2.3,0.2c-0.6,0-1.3,0-1.9,0c-1.1,0.2-2.1,0.8-2.8,1.7"/>
<path class="st0" d="M382,173.4c0.6,0.1,0.9-0.4,1.4-0.4c0.2,0,0.4,0.3,0.7,0.4c0.6,0.1,1.2,0.1,1.9,0h2.3c1.3,0.1,2.6,0,3.9-0.2
	c1.1-0.2,2.1-0.4,3.2-0.6c0.6-0.1,1.2-0.2,1.8-0.5c0.5-0.2,1-0.3,1.5-0.5c0.7-0.3,1.2-0.8,2-1.1s1.6-0.4,2.4-0.7s0.8-0.5,1.6,0
	c1.4,0.8,3.1,1.2,4.7,0.9c0.8-0.1,1.5-0.4,2.3-0.8c0.2-0.2,0.5-0.4,0.8-0.6c0.3-0.2,0.6-0.3,1-0.3c0.7-0.1,1.1,0.3,1.7,0.4
	c1.6,0.2,3.2,0.1,4.8-0.1c4.2-0.8,8.4-2.2,12.3-3.9c-0.5,0-1,0.1-1.4,0.3"/>
<path class="st0" d="M382.7,174.1c0-0.8,3.3,0.3,3.7,0.4c1.2,0.3,2.4,0.5,3.6,0.5c0.8,0.1,1.6,0.4,2.4,0.4c3.5,0.3,6.9,0.2,10.4-0.3
	c1-0.1,2.1-0.1,3.2-0.1c1.4,0,2.7-0.1,4.1-0.3c2.7-0.1,5.4-0.5,8-1.2c1.5-0.6,3.1-1,4.7-1.4c1.4-0.2,2.7-0.6,4-1.2
	c2.4-1.1,6-2.5,7.3-4.9"/>
<path class="st0" d="M383.7,175.1c-0.3-0.3-0.8-0.5-1.2-0.4c0.6,0.3,1.2,0.6,1.7,0.9c1.2,0.7,2.6,1.1,3.8,1.8
	c2.1,1.1,4.4,1.9,6.7,2.4c0.7,0.2,1.3,0.6,2,0.7c0.6,0.1,1.2,0.3,1.7,0.4c1.1,0.3,2.3,0.5,3.4,0.5c1.8,0,3.5,0.1,5.3,0.3
	c1.3,0,2.6-0.1,3.9-0.3c1.3-0.1,2.5,0,3.8-0.2c1.6-0.2,3-0.6,4.6-1c1.2-0.2,2.3-0.5,3.4-1c1.4-0.8,2.8-1.7,4.1-2.7
	c0.9-0.6,1.6-1.2,2.3-2c0.5-0.6,0.9-1.4,1.4-2c0.4-0.3,0.8-0.7,1.1-1.2c0.6-1.1,0.8-2.4,1.5-3.4s2.6-3.9,1.4-5.1"/>
<path class="st0" d="M366.4,189.1c0.5-0.1,1,0.3,1.3,0.6c0.6,0.4,1.2,0.7,1.8,0.9c0.8,0.4,1.5,0.7,2.2,1.2c1,0.3,1.9,0.8,2.8,1.3
	c1.6,1.1,3.1,2.3,4.7,3.3c1.1,0.7,2.4,1,3.5,1.7c0.9,0.6,1.7,1.2,2.6,1.8c0.9,0.7,1.8,1.4,2.7,2.2c0.5,0.4,0.8,0.9,1.3,1.3
	c0.3,0.3,0.6,0.5,1,0.7c0.5,0.3,0.9,0.7,1.3,1c0.6,0.4,1.3,0.7,2,0.9c0.5,0.2,1.1,0.2,1.7,0.5c0.7,0.3,1.5,0.8,2.3,1.2
	s1.6,0.7,2.4,1s1.7,1,2.7,1.3c0.7,0.4,1.6,0.7,2.4,0.8c1.2,0.1,2.4,0.4,3.6,0.3s2.5,0.1,3.8,0c0.6,0,1.2-0.2,1.8-0.3
	c0.8,0,1.6-0.1,2.3-0.3c2.5-1,5.2-1.4,7.4-3.1c1.9-1.4,3.7-3,5.4-4.7c0.8-0.9,1.5-1.7,2.3-2.6c0.8-0.7,1.6-1.5,2.4-2.3
	c0.9-1.3,2.2-2.2,3.2-3.4c1.2-1.5,2-3.3,3.1-4.9c0.5-0.8,1.2-1.4,1.8-2.2s1-1.7,1.6-2.5c1.1-1.5,2.5-2.8,3.5-4.4
	c0.8-1.2,1.7-2.5,2.6-3.6c0.8-0.8,1.3-1.9,1.6-3c0.2-1.6,0.7-3.1,1.6-4.5c0.9-1.8,1.7-3.6,2.4-5.5c0.9-2.2,1.6-4.5,1.9-6.9
	c0.1-1,0.4-2.1,0.6-3.1c0.2-1.4,0.3-2.9,0.5-4.3c0.1-0.7,0.1-1.5,0.1-2.2c0-1.5,0.3-2.9,0.4-4.4c0.1-1.9-0.6-3.8-0.7-5.7
	c-0.2-7.2,0.9-14.7-1-21.7"/>
<path class="st0" d="M7.8,301H7.6c-0.1,0.3-0.2,0.6-0.3,0.8c-0.4,0.8-0.6,1.7-0.8,2.6c-0.2,1.1-0.2,2.1-0.1,3.2
	c-0.1,0.9-0.1,1.9,0,2.8c0.2,1.4,0.7,2.9,1,4.3c0.2,1.3,0.7,2.6,1.5,3.7c0.6,0.8,1.1,1.7,1.5,2.6c0.8,1.8,2,3.5,3.5,4.9
	c2.8,2.3,7.3-0.5,9.2-2.7c1.2-1.4,2.1-3,2.6-4.7c0.3-0.8,0.4-1.6,0.4-2.4c0-0.5,0.3-2.6-0.3-2.9"/>
<path class="st0" d="M5.5,305.2c0-0.5-0.6-0.2-0.8,0c-0.9,0.7-1.3,2.3-1.8,3.2c-1.4,2.5-2,5.4-1.9,8.3c0.1,1.3,0.4,2.6,0.5,3.9
	c0,1.4,0.3,2.7,0.8,3.9c0.7,1.4,1.3,2.8,2,4.2c0.4,1.1,1.1,2.1,2,2.8c0.8,0.6,1.2,1.4,2,1.9c0.8,0.6,1.7,1.1,2.7,1.4
	c0.6,0.4,1.2,0.6,1.8,0.8c0.7,0,1.3-0.2,1.9-0.5c1.8-0.9,3.3-2.2,4.6-3.7c0.5-0.6,0.9-1.2,1.1-1.9c0.4-0.9,1.1-2.2,0.1-2.9"/>
<path class="st0" d="M5.5,330c-0.1,2.1,0.5,4.3,1.5,6.1c0.8,1,1.8,2,2.8,2.9c0.9,1,1.4,2.3,2.5,3.2c1.5,1,3.2,1.9,4.9,2.5
	c0.7,0.4,1.5,0.7,2.3,0.8c0.8,0.1,1.5,0.1,2.3,0c0.8-0.3,1.6-0.6,2.4-1c0.7-0.2,1.3-0.5,1.9-0.9c1.3-1,2.3-2.3,3-3.7
	c1-2.1,1.6-4.9-0.1-6.7c-0.8-1.1-1.9-1.9-3.2-2.4c-1.2-0.3-2.4-0.2-3.5,0.3"/>
<path class="st0" d="M21,334.5c-0.4,0-0.7,0.1-1,0.3c-0.5,0.3-1,0.8-1.5,1.2c-0.7,0.4-1.3,1-1.8,1.7c-0.9,1.1-1.1,2.6-0.7,3.9
	c0.6,1.8,2.1,3,3.9,3.2c2,0,3.8-0.8,5.2-2.2c0.7-0.6,1.2-1.4,1.4-2.3c0-0.7-0.2-1.4-0.5-2c-0.6-1.5-1.4-3.1-3.1-3.6
	c-2-0.7-3.6,1.5-5,2.6"/>
<path class="st0" d="M11.8,326.5c0,0.4-0.4,0.6-0.6,0.9c-0.8,0.7-1.3,1.7-1.5,2.8c-0.1,2.1,1.7,5.3,4.2,4.5s2.5-5.4,1.2-7.2
	c-0.8-1-1.5-1.5-2.8-0.9c-1.4,0.8-2.6,1.9-3.5,3.2"/>
<path class="st0" d="M13.8,313.5c-1.5,1-2.3,3.2-2.7,4.8c-0.4,1.3-0.4,2.7,0,3.9c0.5,1.1,1.7,1.8,3,1.7c1.2-0.2,2.3-0.9,2.9-2
	c0.7-1.1,0.8-2.4,0.3-3.6c-0.4-1.2-1.1-2.3-2-3.2c-0.4-0.8-1.2-1.3-2-1.5c-1.4-0.1-2.3,1.8-3,2.7"/>
<path class="st0" d="M9,289.2c-0.6,0.5,0,1.1,0.4,1.4c1.3,1.4,4.2,0.2,5.6-0.4c1-0.5,2-1,3-1.5c1.5-0.8,3.2-1.3,4.7-2
	c0.7-0.2,1.3-0.6,1.8-1.2c0.6-0.8,0.2-1.6-0.2-2.3"/>
<path class="st0" d="M814.8,160.5c-0.9,0.6-1.8,1.2-2.5,2c-0.6,0.5-1.1,1.1-1.5,1.7c-0.2,0.4-0.4,0.8-0.6,1.2
	c-0.5,0.7-0.7,1.6-0.6,2.5c0.2,1.4,1.5,2.1,2.7,2.5c1.6,0.7,3.3,1.1,5,1.4c1.2,0.1,2.4,0.1,3.3-1c1.2-1.3,1.3-3.2,1.3-4.8
	c0.1-0.5,0.1-1,0-1.5c-0.1-0.3-0.3-0.6-0.4-1c-0.2-0.8-0.4-0.8-1.1-1.2s-1.5-1-2.3-1.3c-0.5-0.3-1.1-0.4-1.6-0.5
	C815.2,160.6,814,161.7,814.8,160.5z"/>
<path class="st0" d="M818.3,182.5c-0.7,0.4-1.6,0.6-2.3,1c-0.8,0.6-1.5,1.4-2.1,2.2c-0.4,0.5-1,0.9-1.1,1.5c-0.3,1.6,0.8,2.9,1.8,4
	c0.6,0.7,1.3,1.3,2.1,1.7c0.7,0.3,1.6,0.5,2.3,0.9c0.6,0.5,1.4,0.6,2.2,0.3c0.5-0.3,0.9-0.6,1.2-1.1c0.5-0.6,0.9-1.2,1.2-1.9
	c0.3-0.6,0.6-1.2,0.8-1.8c0.1-0.6,0.1-1.3,0-1.9c0.1-1-0.1-1.9-0.7-2.7c-0.7-0.9-1.6-1.5-2.7-1.8c-0.5-0.2-1-0.3-1.5-0.3
	C818.6,182.5,817.9,183.1,818.3,182.5z"/>
<path class="st0" d="M822,202.5v-0.2c-0.9-0.2-1.8,0.4-2.5,0.8c-1.3,0.6-2.4,1.8-2.9,3.1c-0.4,0.6-0.6,1.3-0.7,2
	c0.1,0.4,0.1,0.8,0.3,1.1c0.1,0.7,0.5,1.4,0.9,1.9c0.5,0.4,1.1,0.7,1.7,0.8c0.5,0.1,1,0.4,1.5,0.5c0.9,0.1,1.8-0.1,2.6-0.6
	c1.6-0.8,2.1-2.2,2.2-3.9c0.1-0.8,0.2-1.5,0.3-2.2c0.1-1-0.4-1.3-1-2.1c-0.6-0.8-1.4-1.6-2.2-2.2C821.3,200.9,820.7,201.4,822,202.5
	z"/>
<path class="st0" d="M805.8,165.2c-0.6,0.1-0.8,1-0.9,1.5c-0.4,1.5-0.5,3-0.3,4.6c0.3,1.2,1.4,1.8,2.3,2.4c1,0.7,2,1.4,3.1,1.9
	c1.1,0.3,2.2,0.6,3.3,0.8c0.9,0.2,1.9,0.2,2.8,0.1c1-0.2,1.9-0.7,2.7-1.3c0.9-0.4,1.6-1,2.2-1.8c0.8-1.1,1.5-2.4,1.9-3.8
	c0.2-1.3,0.4-2.5,0.8-3.7c0.3-1.3,0.5-2.7,0.5-4c0.1-1.5,0.1-3.1-0.1-4.6c-0.3-0.8-0.6-1.7-1.1-2.4c-0.2-0.6-0.4-1.1-0.7-1.6
	c-0.3-0.3-0.8-0.4-1.1-0.7c-0.5-0.4-0.9-1-1.4-1.4s-1.1-0.9-1.7-1.3c-0.7-0.4-1.5-0.7-2.4-0.6c-0.5-0.1-1-0.2-1.5-0.3
	c-0.6,0-1.2,0.3-1.8,0.3c-1.2,0-2.4,0.3-3.5,0.9c-2.1,1-2.8,2.2-2.5,4.6"/>
<path class="st0" d="M813,177.2c-0.4,0.3-0.8,0.5-1.2,0.8c-1.5,1-2.1,2.9-2.8,4.5c-0.3,0.7-0.6,1.6-0.9,2.3
	c-0.3,0.4-0.5,0.8-0.8,1.3c-0.5,1.3-0.6,2.7-0.2,4.1c0.5,1.3,1.3,2.5,2.3,3.5c0.7,0.6,1.5,1.1,2.4,1.3c0.6,0.2,1.2,0.5,1.8,0.8
	c1,0.5,2.4,0.2,3.5,0.2c1.1,0.1,2.2-0.1,3.1-0.5c1.2-0.8,2.3-1.8,3.2-3c0.7-0.8,1.1-1.7,1.8-2.4c0.3-0.3,0.6-0.7,0.9-1.1
	c0.2-0.6,0.3-1.1,0.5-1.6c0.7-1.4,1.2-2.8,1.6-4.3c0.5-1.6,0.8-3.3,1-5c0.1-1.3,0.1-2.7-0.1-4c-0.2-0.9-0.6-1.8-1.2-2.6
	c-0.3-0.4-0.5-0.9-0.8-1.3s-0.8-0.8-1.2-1.2c-0.2-0.2-0.2-0.6-0.5-0.7c-0.8-0.4-1.6,1-2,1.5"/>
<path class="st0" d="M816.5,196.5c-0.4,0.5-0.8,0.8-1.1,1.3c-0.8,1.3-1.9,2.4-2.8,3.7c-0.9,1.2-1.5,2.5-1.8,4
	c-0.3,1.2-0.3,2.4,0,3.5c0.3,0.6,0.6,1.2,1,1.7c0.4,0.6,0.9,1.1,1.5,1.4c0.8,0.7,1.8,1.1,2.9,1.3c1,0,1.9,0.2,2.9,0.2
	c1.5,0,3-0.5,4.2-1.5c1.5-1,2.9-2.2,4.1-3.5c1.3-1.4,2.4-3,3.6-4.5c0.8-1.3,1.5-2.6,2-4c0.5-1.3,0.9-2.6,1-4
	c0.3-1.5,0.2-3.1-0.2-4.6c-0.3-0.7-0.6-1.4-0.7-2.2c0-0.7,0-1.3-0.1-2c-0.4-1.2-1.7-2.2-2.4-3.2c-0.3-0.5-0.3-0.7-0.9-0.6
	c-0.4,0.1-0.7,0.4-0.9,0.8c-0.5,0.7-1.1,1.3-1.8,1.9"/>
<path class="st0" d="M822.3,212.2c-1.2,0.9-2.9,2.6-3,4.2c-0.1,1.1,1.4,1.5,2.3,1.6c1.5,0.2,3.1,0.1,4.6-0.5c1.9-1.1,3.7-2.5,5.3-4
	c0.8-0.7,1.5-1.4,2.2-2.2c0.8-0.7,1.4-1.6,1.9-2.5c0.8-1.7,1.1-3.7,0.8-5.6c-0.2-1.3-0.4-2.7-0.5-4c-0.1-1.3,0-2.2-1.3-2.6"/>
<path class="st0" d="M823.8,213.7h-0.2c-0.2,0.6-0.1,1.2,0.1,1.8c1.2,2,4.6-1.6,5.4-2.5c0.5-0.6,0.6-0.6,0.5-1.3
	c-0.1-0.9-0.4-1.8-0.8-2.6c-1.5-2.7-5.2,2.7-5.9,3.5"/>
<path class="st0" d="M749,191.5h-0.2c-0.1,0.4-0.1,0.8,0.1,1.1c0.4,1.6,0.7,3.2,2.1,4.2c1.2,0.9,2.5,1.7,3.9,2.2
	c1.4,0.3,2.8,0.4,4.2,0.4c1.2,0.2,2.3,0.2,3.5,0.1c1.1-0.3,2.2-0.5,3.3-0.7c0.5,0,0.9,0.1,1.4,0s1.1-0.2,1.7-0.2
	c0.9-0.1,1.9-0.2,2.8-0.1c2.1,0.3,4.2,0.4,6.4,0.7c2,0.3,4,1,5.8,1.9c1.2,0.4,2.3,0.9,3.4,1.4c1.2,0.7,2.3,1.5,3.5,2.2
	c2.8,1.9,4.7,5.3,8.1,6.2"/>
</svg>
