<svg id="Layer_2_copy" data-name="Layer 2 copy" xmlns="http://www.w3.org/2000/svg" viewBox="0 0 836.5 571.05"><defs><style>.cls-1{fill:none;stroke:#fff;stroke-miterlimit:10;}</style></defs><title>white-line-girl</title><path class="cls-1" d="M474.33,389.67c0,1.64.69,2.47.66,4.14,0,2,.43,4.12-.65,5.91-1.35,2.25-3.59,3.46-4.68,5.92-.68,1.54-.36,2.77-.72,4.31-.27,1.15-1.29,1.76-1.31,3.06s.9,1.85,1.44,2.92a18.78,18.78,0,0,1,1.1,3.75c.68,2.6.15,6,.15,8.67s-.71,5.38,1.46,7.15c.61.5,1.43.69,1.77,1.5s-.08,1.28.06,2a49.61,49.61,0,0,0,1.89,5.47c.73,2.33,1.07,4.85,1.63,7.24a13.39,13.39,0,0,0,1,2.12,18.42,18.42,0,0,0,1,3.15c1.19-.24,1.49-2.18,1.83-3.14.54-1.51,1.27-2.92,1.69-4.45.68-2.48.31-5.36.31-7.91a16.7,16.7,0,0,0-.85-6.32,11.36,11.36,0,0,1-.48-4.15,11.25,11.25,0,0,0,0-2.36c-.13-.53-.76-1.16-.76-1.64s.64-.77.77-1.3a9.3,9.3,0,0,0,0-2c0-1.84,0-2.23,1.17-3.5,1.86-2,.36-4.85-.67-7a30.77,30.77,0,0,1-2-4.16,12.48,12.48,0,0,1-.51-4c0-2.91.58-6.52-.15-9.33-.4-1.55-.31-3.26-1.14-4.62a34.45,34.45,0,0,0-2-3.35C473.52,384.27,472,392.68,474.33,389.67Z" transform="translate(-42.46 -11.78)"/><path class="cls-1" d="M475.67,405a1.47,1.47,0,0,0-1.2-1.26,37.85,37.85,0,0,0-.31,15.24,50.75,50.75,0,0,1,1.5,10.87c0,1.52.51,2.4.72,3.77s-.5,3.2.07,4.62c.3.74,1.65,2.44,2.61,2s.63-2.19.62-2.95c0-1.91.15-3.86-.06-5.76A42,42,0,0,1,479,426a35.43,35.43,0,0,0-1-8.39c-.58-2.5-.09-4.94-.31-7.47a12.79,12.79,0,0,0-1.08-3.88C475.35,403.28,474.91,402.93,475.67,405Z" transform="translate(-42.46 -11.78)"/><path class="cls-1" d="M483.67,395.67l-.55.11c-1.23,3.34.88,9.72,2.53,12.16s3.1,4.1,3.37,7.28c.18,2.13.81,4.22,1.17,6.32.52,3,.15,6.41.15,9.5a25.32,25.32,0,0,1-.11,4.89c-.25,1.23-.88,2.38-1.11,3.62s0,2.29-.16,3.45a2.75,2.75,0,0,1-2-.66" transform="translate(-42.46 -11.78)"/><path class="cls-1" d="M467.67,397a1.85,1.85,0,0,0-.13-1.26c-1.06.15-1.12,1.11-1.35,2a67.47,67.47,0,0,0-1.82,7.22c-.71,4.66,0,10,0,14.74a92.61,92.61,0,0,0,.65,12.72,23.85,23.85,0,0,0,2.65,7.31,16.18,16.18,0,0,0,1.93,2.67c1.29,1.57,1.46,1.73.11,3.3" transform="translate(-42.46 -11.78)"/><path class="cls-1" d="M478.33,470.33c0,1.55.54,4.05-.6,5.19-.92.92-2,1-2.78,2.19a4.11,4.11,0,0,0-.63,1.95c-.35,2.39,1.4,2.47,2.72,4,.95,1.11,2,2.28,3.65,2a6.59,6.59,0,0,0,3.51-2.16c.93-1.62-.18-2.9-1-4-.7-.95-.68-.36-.37-1.34q.38-.3.73-.63a1.91,1.91,0,0,0,.11-1.22c.33-.78.82-1,.74-2-.06-.71-.81-1-.83-1.87-.91-.23-1.69-.62-2.52-.81-1-.23-2.3.62-2.86-.62-.74.57-2.4,4.45-2.51,4.65" transform="translate(-42.46 -11.78)"/><path class="cls-1" d="M414.33,355.67c0,1.24-.22,2.23.41,3.34,1.56,2.72,5.21,4.17,7.15,6.68a58.42,58.42,0,0,0,7.74,8,18.22,18.22,0,0,0,5.62,3.42c1.06.4,1.14.57,2.24-.23,2-1.44,3.18-2.85,5.51-3.86" transform="translate(-42.46 -11.78)"/><path class="cls-1" d="M513.67,365.67l-.59.15c.12,1.1,2.88,3,3.87,3.23,2.44.62,5.75-2.71,7.38-4.07,2-1.67,2.5-2.51,3.33-5.13a29.69,29.69,0,0,1,3.48-7.48c1.32-2,2-4.48,3.49-6.33.64-.8,1.47-1.4,2.18-2.14,1.19-1.24,1.8-2.87,3-4.11,2-2.14,4.46-4,6.56-6.17,2.53-2.57,5.38-5,8.13-7.33,5.92-5,13.13-8,18.61-13.45,2.92-2.92,6.74-4.68,9.88-7.34s6.57-4.82,9.37-7.82c2.52-2.69,4.85-5.58,7.29-8.34,3.38-3.81,6.42-8,10-11.67,8.11-8.34,13.83-18.54,20.64-28a124.57,124.57,0,0,0,8-12.7c2.78-5,4.86-10.52,8.21-15.24,2.18-3.08,4.87-5.74,7-8.88a67,67,0,0,1,7.56-9.24,83.49,83.49,0,0,0,7.91-10.29A72.89,72.89,0,0,1,677.7,183c2.86-2.82,5.17-6,7.78-9,2.1-2.44,4.74-4.2,6.85-6.61,3.92-4.48,7.8-8.27,13.48-10.39,5.19-1.94,10.81-3.2,16.15-4.66a59.65,59.65,0,0,1,8.38-1.14,62.28,62.28,0,0,1,8.77-.81c2.56,0,4.92-.7,7.45-.7a51.2,51.2,0,0,1,7.23.83c5.66.82,11.54,2.08,15.65,6.3,2,2.06,4.49,3.55,5.73,6.21a17.12,17.12,0,0,0,2.36,4c1.07,1.28,3.87,3.46,5.51,1.56l0,.39" transform="translate(-42.46 -11.78)"/><path class="cls-1" d="M829.67,161.67c-1.94,0-3.41,1.07-5.44.57-2.64-.65-4.35-3.23-6.9-4.25a21.69,21.69,0,0,0-2.05-.92c-.83-.21-1.73.12-2.55-.12a7.05,7.05,0,0,0-3-.64,8.89,8.89,0,0,0-3.64,1.35c-3.19,1.55-6.54,2.27-9.65,4.05-2.44,1.4-5.13,2.62-7.48,4.13-1,.67-1.66,1.78-2.62,2.54a21.45,21.45,0,0,0-2.95,2.59c-1.42,1.56-1.69,1.82-1.72,4" transform="translate(-42.46 -11.78)"/><path class="cls-1" d="M761.67,205c-.8,1.64-.58,2.94-.8,4.85-.32,2.67-.46,5.2-1.83,7.57-1,1.68-2.33,3.12-3.21,4.84s-1.22,4-2.45,5.69c-1.11,1.53-2.46,2.91-3.59,4.44-2,2.77-4.47,5.16-6.47,7.95-3.73,5.2-5.72,12.5-3.42,18.61,1.17,3.1,1.5,7.48,4.16,9.75,2.49,2.13,5.5,2.77,8.3,4.29,4.52,2.46,10,6.09,15.35,6a34.72,34.72,0,0,0,6.65-.52c2.88-.57,4.75-1.79,7.37-3,6-2.89,12.47-5.23,17.93-9.09,1.53-1.08,3.52-2,4.77-3.36,1-1.09,1.64-2.37,2.67-3.45,3-3.1,6.49-5.65,9.25-8.87,5.52-6.44,12.56-12.69,20.72-15.28a102.49,102.49,0,0,1,11.61-2.49c4.53-.87,8.81-3.55,13.38-4l-.38,0" transform="translate(-42.46 -11.78)"/><path class="cls-1" d="M707.67,179c-2.46-.64-5.61,5.27-6.4,6.72s-1.76,2.54-2.36,3.92-.51,3-.67,4.59a116.7,116.7,0,0,0-.58,11.81c0,3.33.59,6.52.7,9.83a32.34,32.34,0,0,0,1.28,9.27c.91,3,1.34,6.69,2.89,9.43,1.39,2.45,3.06,4.64,4.34,7.17a42.6,42.6,0,0,0,2.46,4.58c2.55,3.83,6.38,6.07,9,9.74,1,1.33,2.77,1.83,4,3a44,44,0,0,0,3.95,3.35c1.62,1.13,3.48,1.6,5.18,2.65,1.36.84,2.75,1.43,4.17,2.17,2.91,1.49,6.9.64,9.33,3.17" transform="translate(-42.46 -11.78)"/><path class="cls-1" d="M158.33,248.33c-3.74.07-6.09,2.46-9.7,3.23-1.62.35-3.29-.05-4.93.23-2.82.49-5.11,1.23-8,1.18a35.5,35.5,0,0,0-11.9,2.18c-3.16,1.06-6.26,1.16-9.39,2.34a36.16,36.16,0,0,0-7.14,3.81c-1.65,1.09-3.43,1.91-5,3.06-1.28.92-2.23,2.13-3.46,3.15-2.31,1.92-4.29,4.21-6.63,6.11s-3.63,5.09-5.84,7.37c-2,2.07-3.55,4.3-5.71,6.28-1.86,1.7-4.08,3-6,4.71s-3.64,2.86-6.34,3-5.36,1-8,1.39c-1.06.14-2.31-.34-3.33-.07a8.26,8.26,0,0,0-2,1.2,16.11,16.11,0,0,0-4.57,4.57c-1.11,1.61-.74,3.66-.74,5.59,0,2.26.07,3.48,1.5,5.17s3.44,2.41,5.33,3.33a12.38,12.38,0,0,0,5.84,1.5c1.11,0,2.22,0,3.33,0,1.41,0,1.77-.41,3-.69a29,29,0,0,0,3.68-.64c1.58-.57,3.46-1.5,5.16-1.35L77,315" transform="translate(-42.46 -11.78)"/><path class="cls-1" d="M69.67,355.67c-.57-2.27,3.19-2.52,4.52-2.79,3.27-.65,6.18-2.54,9.4-3.13,1-.18,2-.06,3-.19,2.07-.28,4-1.15,6.08-1.52a134.46,134.46,0,0,1,13.67-1.71c4.42-.32,8.7-.89,13.19-.7,2.15.09,4.05.86,6.14,1.22,2.57.44,5.19.53,7.77,1a67.83,67.83,0,0,1,14.6,4.81c4.45,1.93,8.63,4.21,13.3,5.72,1.93.63,3.64.39,5.56.77,2.3.45,4.5,1.45,6.81,1.88a71.22,71.22,0,0,0,24,.74,32.67,32.67,0,0,0,9.3-3.35,20.82,20.82,0,0,0,9.4-10.23,28.58,28.58,0,0,0,2-10c0-2.9-1.21-5.57-1.35-8.43-.11-2.28-.16-3.34-1.32-5.35-1-1.78-1.22-3.82-2.61-5.38a66.86,66.86,0,0,0-8-7.34c-2.2-1.77-4.65-3.13-6.65-5.13-2.22-2.22-5-3.9-7.35-6a16.06,16.06,0,0,1-5.53-9.83,26.08,26.08,0,0,1,.15-10.48c.42-1.86,1-3.66,1.46-5.49s1.2-3.2-.74-4.37" transform="translate(-42.46 -11.78)"/><path class="cls-1" d="M139,251l.15.6c1.32,0,3.42-5.71,3.71-6.42,1-2.51,1.79-5.1,2.84-7.6,1.12-2.67,1.1-5.07,1.61-7.85a18.8,18.8,0,0,1,1.37-4.62,14.32,14.32,0,0,0,1.16-4,62,62,0,0,1,2.24-9.51c1.2-3.28,2.13-6.67,3.31-10s2.25-6.76,3.59-10c1.17-2.81,2.29-5.32,3.69-8A80.63,80.63,0,0,1,169,173.47a30.48,30.48,0,0,1,6-5.82c.88-.67,1.76-1.36,2.65-2a18.6,18.6,0,0,1,4.55-2c4.59-1.78,9.48-2,14.45-2a72.83,72.83,0,0,1,7.53,0c2.44.26,4.8,1.62,7.12,2.36,1.41.45,2.87.58,4.25,1,1.17.34,2.18,1,3.36,1.37,3,1,5.72,2.27,8.72,3.3,4.23,1.46,7.58,3.67,11.38,6,3.13,1.91,5.76,4.64,8.83,6.7a60.15,60.15,0,0,1,6.65,4.79c3.31,3,5.52,6.79,8.27,10.21,3,3.72,7.22,6,10.37,9.63q2.76,3.16,5.55,6.3c2.12,2.38,3.91,5,6,7.36,3,3.47,5.4,7.82,8.94,10.66,2.77,2.22,4.58,5.5,7.4,7.6a59.8,59.8,0,0,1,7,6.42c2.87,2.95,5,6.58,7.83,9.55s5,6.09,7.65,9c1.41,1.51,2.75,3,4.21,4.52,1.63,1.66,2.54,3.57,4,5.33,2.89,3.47,6.26,6.52,9.15,10,3.52,4.28,6.88,8.81,10.53,13,2.86,3.24,5.28,6.82,8.24,10,1.26,1.34,2.48,2.75,3.66,4.17,1.63,2,3.69,3.54,5.25,5.53,2.35,3,5,5.61,7.3,8.67a59.78,59.78,0,0,0,6.84,7.36c2.24,2.15,4.55,4.52,7.26,6a23.05,23.05,0,0,1,6.73,5.06,25.52,25.52,0,0,0,6.35,6c1.15.74,2.51,1.12,3.59,1.95.92.71,1.87,1.62,2.75,2.37a22.05,22.05,0,0,1,3.31,4.31c.86,1.2,2.12,3.91,3.68,4.28a9,9,0,0,1-2,4.07" transform="translate(-42.46 -11.78)"/><path class="cls-1" d="M200.33,307l.11-.56c5.43-1.16,9.2-5.28,13.65-8.55,2.47-1.81,5.3-3.43,7.42-5.68,1.25-1.33,2.22-2.89,3.51-4.2.94-1,1.94-1.8,2.82-2.82,1.88-2.2,3.22-4.72,5.17-6.86a20.07,20.07,0,0,0,3.84-6.47c.46-1.24.68-2.55,1.18-3.79a36.36,36.36,0,0,0,2.2-5.44c.74-3.21,1.31-6.57,1.95-9.81,1.21-6.15.82-12.44.82-18.68,0-5.26,0-10.51,0-15.77a34.57,34.57,0,0,0-1.08-9.09c-.76-2.94-1.12-6-1.92-8.89-.71-2.6-1.5-5.1-2-7.76a10,10,0,0,0-1.13-3.62c-.77-1.27-1.76-2.32-1.93-3.89A15.79,15.79,0,0,1,235,187" transform="translate(-42.46 -11.78)"/><path class="cls-1" d="M216.33,334.33l.11-.42a47.75,47.75,0,0,1,8.44,6.94c3.1,3.16,6.61,6.11,9.32,9.63,4.87,6.32,9.49,12.82,14.14,19.29,1.32,1.84,2.14,3.95,3.29,5.88,1.48,2.48,3,4.86,4.37,7.42,2.78,5.37,5.88,10.58,8.55,16,2.21,4.51,5,8.57,6.81,13.29,1.76,4.45,3.66,9,5.65,13.31,1.75,3.8,2.36,8,4,11.82,1.72,4.17,3.83,7.84,4.85,12.28.58,2.51,1.82,4.55,2.7,6.8s.76,5.2,1.32,7.59a60.41,60.41,0,0,0,3,10.15,31.7,31.7,0,0,0,2,4c.88,1.41,2.77,2.9,2.83,4.63" transform="translate(-42.46 -11.78)"/><path class="cls-1" d="M289.67,481.67h-2" transform="translate(-42.46 -11.78)"/><path class="cls-1" d="M287,481c-1-.47-1.46-1.67-2.67-1.33" transform="translate(-42.46 -11.78)"/><path class="cls-1" d="M285.67,478.33a5.54,5.54,0,0,0,2.18,2.72c1.38.79,3.27.41,4.75.7.83.17,1.64.51,2.49.61,2.6.31,6.46-.87,8.76.45,3.16,1.83,3.48,8.71,1.51,11.54a8.21,8.21,0,0,1-6.52,3.31c-2.38,0-4.76,0-7.13,0a62.51,62.51,0,0,0-7.38,0,4.62,4.62,0,0,0-2.35,1.09c-1.66,1.08-3.6,1-3.63,3.59" transform="translate(-42.46 -11.78)"/><path class="cls-1" d="M295,485c-1,1.24-2.49,1.75-3.37,3.11-1.09,1.69-1.24,5.37.62,6.55,3.11,2,5.67-4.12,6.1-6.41.38-2.07-.55-4-3.14-2.71-2.43,1.24-3.6,3.9-4.87,6.14" transform="translate(-42.46 -11.78)"/><path class="cls-1" d="M281.67,511l.11.55a9.7,9.7,0,0,0,2.65.07c1.74.12,3,1,4.54,1.74,2.83,1.34,6.86,1.67,10,1.64,1.51,0,3,.08,4.53,0a25.68,25.68,0,0,0,3.15-.63c1-.15,2,.13,3,0A43.6,43.6,0,0,0,314,513a28.19,28.19,0,0,1,5.1-1.29c2.21-.18,3.93-1.39,6.19-1.37a18.21,18.21,0,0,0,2.86,0c1-.16,1.75-.72,2.81-.73,2.17,0,2.72,1.32,3.82,2.85,1.88,2.6,3.55,6.54.87,9.2-1.14,1.13-2.69,1.71-4,2.62a10.78,10.78,0,0,1-3.89,2c-1.33.36-2.68.73-4,1.15-2.39.76-4.73.92-7.15,1.58s-4.36.22-6.67.56c-.89.13-1.59.57-2.48.73s-2.12-.16-3.16,0c-2.33.41-4.75,1.13-7.1,1.3-1.32.1-2.79-.26-4.1-.06-1,.16-1.77.65-2.82.72a16.9,16.9,0,0,0-2.7,0c-1,.24-1.09.66-2.29.71-2.26.09-4.17-.54-6.36-.69-1.82-.12-6.2-2.08-6,1.35" transform="translate(-42.46 -11.78)"/><path class="cls-1" d="M291.67,537.67l-.61-.17c.15-.52,1.92-1.13,2.5-1.33,2.82-1,5.93-.82,8.79-1.58,4.14-1.1,8.24-2.2,12.33-3.59,2.8-1,5.7-1,8.5-2,1.21-.43,2.38-.79,3.63-1.15a38.64,38.64,0,0,0,4.93-2.12,21.34,21.34,0,0,1,7.22-1.39,4.78,4.78,0,0,1,3.68,1c1.36,1,2.92,1.45,4.35,2.34,1.94,1.22,3.28,2.86,2.54,5.33-.84,2.77-2.94,3.9-5.17,5.3a78.5,78.5,0,0,1-10.59,5.23c-1.87.81-3.76.69-5.65,1.43s-3.31,1.94-5.1,2.55c-4.86,1.66-9.65,4.07-14.7,5.33-1.94.49-4.33.15-6.33.15h-6.67a14.82,14.82,0,0,1-3,0c-.92-.22-1.17-.65-2.29-.71s-2,0-3,0a8,8,0,0,0-1.69,0c-.55.13-.89.52-1.37.63a16,16,0,0,1-3.61.06c-1.26,0-1.56.43-2.63.7-1.53.38-2.83-.39-4.18-.89-1.59-.59-2.72-.45-3.88-1.82-1.49-1.75-2.66-3.14-2.63-5.48,0-1.16-.34-2.75.1-3.85.32-.79,3.21-4.12,3.8-4a2,2,0,0,1,.1,1.3" transform="translate(-42.46 -11.78)"/><path class="cls-1" d="M307.67,553.67c2.56,0,5,.86,7.5.72,3.27-.18,6.27-1.59,9.45-2a51.92,51.92,0,0,0,9.09-2.52c1-.34,2.13-.48,3.15-.8s1.75-1,2.78-1.37a31.5,31.5,0,0,1,6.7-2,20.45,20.45,0,0,1,4,0c1.86.23,1.55,1.08,2.76,2.08s1.92.54,2.74,1.95a8.26,8.26,0,0,1,1.2,2.68c.26,2.28-1.85,4.49-3.63,5.33-1.17.55-2.12,1.43-3.26,2-1.41.76-3,1.24-4.43,1.95-2,1-4.13,1.73-6.12,2.71-1.58.79-3.47.88-5,1.77-1.28.76-1.62,1.26-3,1.53-1.48.3-2.89.93-4.39,1.2s-2.82,0-4.26.28a29.08,29.08,0,0,1-5.65.52c-2.13,0-4.27,0-6.4,0a29.54,29.54,0,0,0-6.32,1,10.59,10.59,0,0,1-5.8-.32,6.28,6.28,0,0,1-2-.61c-.68-.43-1.16-1.42-1.85-1.81-.89-.51-2-.51-2.92-1-.63-.35-1-.91-1.68-1.26a23,23,0,0,1-2.43-1.33,12.9,12.9,0,0,0-4.58-2c-.94-.2-2.14.34-3.06.06-.71-.22-1.11-.89-1.69-1.29-.37-.25-.83-.1-1.21-.42-.58-.48-.64-1.52-1-2.18C275.42,557,275,556.86,275,555" transform="translate(-42.46 -11.78)"/><path class="cls-1" d="M272.33,535.67c-1.78,0-2.19-2.84-2.95-3.87-.94-1.27-2.66-1.79-3.89-2.6a10.64,10.64,0,0,1-2.51-2.58c-1-1.47-.63-3.26-.66-4.95a5.19,5.19,0,0,1,1.67-4,14.11,14.11,0,0,0,1.17-1.13c.62-.88.21-1.18.45-2.22.13-.54.68-.72.75-1.28.11-.88-.5-1.07-.66-1.72a16.15,16.15,0,0,1,0-5.63,18.68,18.68,0,0,0,.64-2.63,11.94,11.94,0,0,0-.64-3c-.46-2.49.61-4.89.62-7.37a28.67,28.67,0,0,1,.72-5.38c.46-2.34,1.86-4.54,2-6.93a9.62,9.62,0,0,1,.09-2.62c.31-1,1-1.7,1.25-2.74a29.41,29.41,0,0,1,1.63-5,51.89,51.89,0,0,0,2.67-8.25c.7-2.91,1.19-6.61,2.82-9.36.81-1.37,2-1.87,2.21-3.63a6,6,0,0,1,.28-2.33c.45-1,1.62-1.51,1.7-2.67" transform="translate(-42.46 -11.78)"/><path class="cls-1" d="M304.33,569.67c-.74,2.2,1.69.81,2.53,1.43,1.28.94,1.79,3.84,2.77,5.12,1.19,1.56,3.09,2,4.73,2.78,1,.49,1.43,1.34,2.3,2,1.5,1.18,4.09,1.79,5.85.82a24.23,24.23,0,0,1,3.95-2c2-.67,4-1.19,6-1.66,1.53-.36,3.65-1.2,5.21-1.22,1.92,0,2.41,1.14,4.32-.19a17.8,17.8,0,0,1,2-1.37c.69-.35,1.49-.22,2.16-.54a11.56,11.56,0,0,0,3-2.34c.43-.6.21-1,.45-1.54.14-.33.75-1,.75-1.31,0-.64-1.06-2.08-1.4-2.66-2.1-3.57-6.08-.93-9.24-.64a12.75,12.75,0,0,0-.75,4" transform="translate(-42.46 -11.78)"/><path class="cls-1" d="M328.33,513c-1.16-.34-1.79.85-2.57,1.45-2.14,1.64-4.33,2.47-6.07,4.55-1,1.25-2.81,2.43-2,4.38,1,2.47,4.53,1.2,6.41,1s6.56.22,7.55-2.07c.46-1.06.07-3.38,0-4.53-.08-2-1.09-1.47-2.91-1.47a35.8,35.8,0,0,0-4.12,0c-2.55.29-3.47,1.27-5,3.32" transform="translate(-42.46 -11.78)"/><path class="cls-1" d="M342.33,529.67c-3.36,0-5.88.92-7.93,4-1.45,2.17-1.14,9.34,2.68,8.62,2.09-.39,6.31-2.42,7.53-4.19a6.25,6.25,0,0,0,1-4.42c-.88-4.85-7.77-4.1-10-.66" transform="translate(-42.46 -11.78)"/><path class="cls-1" d="M348.33,551c-3.51,0-6.84-.14-9.4,2.83-.92,1.07-2.4,2.6-2.65,4s-.17,3.36,1,4.17c2.24,1.49,4.39-1.1,6.3-1.95s3.56-1.48,4.36-3.7c.66-1.84.82-3.45-1.32-4-3.06-.74-4.71.24-7,2" transform="translate(-42.46 -11.78)"/><path class="cls-1" d="M344.33,570.33c-.09-1.48-4.23-.08-5,.36-2.29,1.28-2.63,5.36.28,5.72,3.39.42,8.21-2.08,9.3-5.46a3.41,3.41,0,0,0-.9-3.54c-1.9-1.53-5.23.83-7,1.6" transform="translate(-42.46 -11.78)"/><path class="cls-1" d="M683,457.67c-1.86-2.11-5.69,1.12-7.37,2-2.34,1.25-4.87,2.65-5.81,5.32-.58,1.63-1.47,4.29-.72,6,.46,1.06,2.07,1.58,2.93,2.24a3.49,3.49,0,0,0,2.78,1.09c4.4.09,9-.09,11.88-4,1.79-2.45,2-5.07,1.68-8.06a5.27,5.27,0,0,0-2.63-3.88c-3.25-2.19-4.49.46-5.4,3.24" transform="translate(-42.46 -11.78)"/><path class="cls-1" d="M689,476.33c-1.45-.22-3.11,1.16-4.38,1.72-2.11.94-4.66,2.49-6.95,2.89-1.06.19-2.12-.13-3.17,0-1.24.17-2.43.51-3.68.68a17.06,17.06,0,0,0-5.3,1.84c-3.16,1.68-5.61,2.92-5.2,6.86.31,3,4.66,3.74,7,4.73a41.22,41.22,0,0,0,5.68,1.77c2.27.58,5.14.15,7.5.15a45.59,45.59,0,0,0,13.24-1.64c2.81-.89,5.87-2.28,7.29-5,.62-1.18.46-2.67.8-4s1.13-3.71.39-5.2-2.81-1.67-4.14-2.22a4.19,4.19,0,0,1-2.91-3.25c-.22-.9-.28-1.85-.48-2.66a22.15,22.15,0,0,0-.47-2.52,10.31,10.31,0,0,0-1.37-2C691.52,467,690.09,468.34,689,476.33Z" transform="translate(-42.46 -11.78)"/><path class="cls-1" d="M671,484.33a13.45,13.45,0,0,0-3.32.09c-1.65.45-3.64,2.4-4.62,3.75-2.41,3.33,3.5,7.64,6.56,7.44,3.93-.25,6.36-3.5,5-7.31-.65-1.86-2-3.43-4.18-3.28s-4.31,3.14-5.48,4.64" transform="translate(-42.46 -11.78)"/><path class="cls-1" d="M673,499l-.11-.56c-1.16-.25-2.05-.66-3.17-.79s-2.31.13-3.46,0a27.79,27.79,0,0,0-3.89-.63c-2.4,0-5,.34-7.35-.15s-4.32.14-6.68.16c-1.63,0-2.89-.63-4.52-.68-1.83-.06-2.59.59-4.11,1.35-1.31.65-2.5.88-3.53,2-1.55,1.64-1.84,3.23-1.83,5.4,0,1.83-.06,2.63,1.32,4,1.7,1.67,2.81,1.56,5,2,.91.2,1.62.85,2.53,1.13a32.19,32.19,0,0,0,3.31.67c1.47.27,3-.09,4.45.28,1.11.29,2.23.87,3.35,1.21,2.14.65,3.93.47,6.12.64,1.52.12,2.7.7,4.29.68,3.33,0,6.67,0,10,0,1.67,0,3.33,0,5,0a7.6,7.6,0,0,0,2.33-.33c.81-.21,1.59-.12,2.37-.3s.94-.59,1.61-.73a12.74,12.74,0,0,1,2.36,0c2.2,0,3.72.22,1.33,2" transform="translate(-42.46 -11.78)"/><path class="cls-1" d="M641.67,501.67c-1.48,0-1.45.26-2.63.85-1.56.78-2.72.81-3.93,2.32-3.28,4.07,3.85,5.32,6.62,4.81,2.13-.39,6.31-3.92,4.92-6.32C645.56,501.45,644,501,642,501c-3.26-.1-3.8.16-5,3.37" transform="translate(-42.46 -11.78)"/><path class="cls-1" d="M671.67,517.67c-2.87.05-3.77.91-6,2.54a18.75,18.75,0,0,1-6.26,2.82c-2.38.52-4.52-.62-6.77-.7-1.19,0-2.4.09-3.59,0-1.38-.08-2.61-.68-4-.71s-2.4.56-3.69.72c-1.71.2-1.52.23-3,1.34-2,1.52-4.37,2.15-4.69,5-.16,1.44,0,3.51,1.16,4.53,1.35,1.24,5,.33,6.73.45,1,.07,1.25.49,2.1.71,1.23.32,2.53-.46,3.69-.65,3.78-.6,7.57,1.9,11.17,2.53,1.7.3,3.19-.64,4.87-.62s3.3.67,5,.71c2.05.05,3.77.14,5.54-.77,2-1,4.12-2.32,6.12-3.58,1.21-.77,2.3-1.7,3.43-2.46a34.65,34.65,0,0,0,4.08-3.22,22.69,22.69,0,0,0,2.64-3.47c.42-.58.68-1.21,1.15-1.82.6-.78.8-.82,1-1.71.14-.5-.16-1,.09-1.53,1-2,3.37-1.05,4.79-2.18a8.53,8.53,0,0,0,1-1.28c.49-.58,1.57-.93,1.94-1.48s.1-2.34.1-3.19c0-2.12.37-4.62-.15-6.67-.23-.9-.87-2-1-2.81a18.29,18.29,0,0,1-.15-3.85" transform="translate(-42.46 -11.78)"/><path class="cls-1" d="M645.67,526.33c-1.32,0-2.31-.16-3.48.58s-2.88,2.48-2.63,4.06c.71,4.36,11.6,1.7,11.84-2-1.06-1.12-3.53-1.75-4.9-2-2.92-.44-4.18,1.32-6.17,3.32" transform="translate(-42.46 -11.78)"/><path class="cls-1" d="M650.33,536.33c-3.92,0-11.12,1.19-11.35,6a12.12,12.12,0,0,0,0,2.66c.3,1.36.91,1.12,2.05,1.48a3.6,3.6,0,0,0,3.15,0,13,13,0,0,1,3.23-.87,13.19,13.19,0,0,0,4.43-.6c1.94-.73,3.74-1.64,5.73-2.25a23.41,23.41,0,0,1,6.79-1.14c2.27,0,3.52.08,5.35-1.17a3.74,3.74,0,0,0,1.28-1.43c.44-.69,1.83-2.51,1.67-3.3l-1-.1" transform="translate(-42.46 -11.78)"/><path class="cls-1" d="M745.67,277.67c-3.24-.92-4.11,7.92-4.62,9.39-.76,2.22-2.26,3.85-3.27,5.92a37.82,37.82,0,0,0-1.46,4.42,33.86,33.86,0,0,1-4.18,7.76c-1.59,2.4-1.89,5-3.12,7.5-.92,1.9-2,3.84-2.72,5.82-2.28,6.11-3.53,12.61-6,18.71-.93,2.32-1.88,5-3.48,7a15,15,0,0,0-3,5.53,25.3,25.3,0,0,1-3.66,7.16A43.69,43.69,0,0,0,707,363c-.94,2.12-2.55,4-3.39,6.14-.43,1.09-.52,2.31-.94,3.4s-1.2,2.2-1.71,3.33c-1.46,3.24-3.12,6.26-3.88,9.77A53.82,53.82,0,0,1,695,393a149.53,149.53,0,0,0-4.51,14.67c-.69,2.68-.61,5.45-1.32,8.1-.59,2.2-1.54,4.31-2,6.54-1.08,4.89-1.65,9.55-3.46,14.24-1.17,3-3,6-3.89,9.13-.49,1.68-.89,3.06-1.48,4.65a11.49,11.49,0,0,1-1.15,2.71c-.61,1-1.4,1.87-2,2.83a27.93,27.93,0,0,0-3.33,6.52c-.75,2.3-2,4.37-2.81,6.63a50.39,50.39,0,0,0-2.5,7.34,47.89,47.89,0,0,1-2,7.35c-.75,2-1.77,4-2.65,6-.48,1.09-.78,2.3-1.32,3.35-.63,1.22-1.83,1.55-2.6,2.7l.4-.05" transform="translate(-42.46 -11.78)"/><path class="cls-1" d="M352.33,564.33c1.07-.37,1.64.77,2.3,1.36a22.07,22.07,0,0,0,7.62,4c4.22,1.51,8.32,3.43,12.7,4.43a47.12,47.12,0,0,0,9.22,1.5c2.67.11,5.57.5,8.22.85,6.34.84,12.5-.74,18.86-.85,6-.1,11.85-1.2,17.78-2.16,5.46-.88,10.89-1.72,16.33-2.81,8.94-1.79,16.63-7.77,23.31-13.67a28.64,28.64,0,0,0,4.37-4.54,31.84,31.84,0,0,1,2.6-3.5c1.5-1.5,4.61-3.74,6.69-4a8.54,8.54,0,0,1,5,1.37c2.19,1.17,4,2.93,6.22,4.11,3.94,2.09,7.45,4.64,11.27,6.92a33.71,33.71,0,0,0,9.23,3.63c2.6.67,4.69,2.15,7.22,2.93a154.94,154.94,0,0,0,16.2,4.22,94.56,94.56,0,0,0,18.19,1.5,91.22,91.22,0,0,0,10.63-.14c3.47-.41,6.77-1.46,10.2-2a56.18,56.18,0,0,0,16.93-5.3c5.65-3,11.91-4.91,17.54-8,1.57-.85,2.82-2.07,4.42-2.86,1.37-.67,2.88-1,4.24-1.66,3-1.51,5.9-3.24,8.95-4.65,2-.93,4.06-1.79,6-2.78,1.73-.87,5.4-2.19,5-4.61" transform="translate(-42.46 -11.78)"/><path class="cls-1" d="M475,485.67c.38,1.36-1.38,2.29-2.17,3.15a7.85,7.85,0,0,0-1.73,2.33c-.45,1.41.42,1.92.57,3.18" transform="translate(-42.46 -11.78)"/><path class="cls-1" d="M482.33,491c-.35,1.39,3,7.33,4,7.33" transform="translate(-42.46 -11.78)"/><path class="cls-1" d="M491,483.67c.41,2.13,5.76,2.84,7.33,2.67" transform="translate(-42.46 -11.78)"/><path class="cls-1" d="M490.33,473c2,.31,5.07-1.86,6.67-2.67" transform="translate(-42.46 -11.78)"/><path class="cls-1" d="M470.33,471.67c-.87-.25-1.18-1.25-1.92-1.83-1.19-1-2.95-1.07-4.08-2.17" transform="translate(-42.46 -11.78)"/><path class="cls-1" d="M405.67,348.33a6.44,6.44,0,0,1,3.37-.67,30.82,30.82,0,0,0,9.38-1.07c3.09-.91,6.34-1.6,9.25-3,3.61-1.78,6.66-4.53,10-6.73,1.6-1.05,3.34-1.91,4.84-3.09s2.43-2.49,3.76-3.61a81.68,81.68,0,0,1,6.9-5.13c2.36-1.58,4.76-3.15,7.26-4.51,2.05-1.11,4.32-1.44,6.51-2.16,1.1-.36,2.26-1.2,3.38-1.32" transform="translate(-42.46 -11.78)"/><path class="cls-1" d="M494.33,317.67l-.44,0c1.76,1.16,4.25,1.37,6.21,2.17,3.67,1.51,7.06,3,10.56,4.87,2.18,1.14,4.23,2.5,6.41,3.63a17.93,17.93,0,0,1,4,2.18,3.68,3.68,0,0,0,1.56,1.9,14.26,14.26,0,0,0,2,.9c2.23.84,4.49,1.31,6.7,2,1.45.48,2.52,1.5,4.05,1.71a35,35,0,0,0,4,0c.7,0,5.79-.63,3-2" transform="translate(-42.46 -11.78)"/><path class="cls-1" d="M584.33,289c-.71-.19-2,.49-2.67.81a3.87,3.87,0,0,0-2.08,2.1c-1.3,2.37-.86,5.38,2.07,6.28a3.7,3.7,0,0,0,4-1.19c.81-.8,2.75-2.89,2.73-4,0-1.47-1.67-2.46-2.82-2.92-2.24-.89-3.32-.2-5.28.95" transform="translate(-42.46 -11.78)"/><path class="cls-1" d="M594.33,293.67c.66-1.37,1.27-3.19-.13-4.53-.58-.56-1.42-.91-2-1.45-.81-.73-1.34-1.56-2.51-1.88a25.47,25.47,0,0,0-7.52-.81c-2.5.11-6.44.41-8.53,2s-3.87,5.05-4.5,7.38c-.4,1.48-.63,4.82.48,6,2.42,2.63,11,4.43,13.38,1.3" transform="translate(-42.46 -11.78)"/><path class="cls-1" d="M365,307.67c-.73-2.28,4.91-1.52,5.9-.71,1.14.93,1.72,7.49-.57,6.71" transform="translate(-42.46 -11.78)"/><path class="cls-1" d="M361.67,304.33l-.57.44c-1.16-3.3,6.08-4.36,7.94-4.47,4.24-.25,9-.29,11.38,4,1,1.8.3,3.65.73,5.55a7.14,7.14,0,0,1-.32,5.3,8.78,8.78,0,0,1-1.64,3.35c-1,1-4.08,2.38-5.46,1.72l-.06-.57" transform="translate(-42.46 -11.78)"/><path class="cls-1" d="M444.33,349.67l-.44,0c.87-.32,1.3-1,2-1.38a8.88,8.88,0,0,1,4.93-.7,59.64,59.64,0,0,1,10.3,1.56c1.87.43,3.65.23,5.49.46a30.06,30.06,0,0,0,4.66.7c3.81,0,6.35-.27,9.77-2s6.5-3.66,10-5.17c3.19-1.38,7.07-1.48,10.5-2a26.27,26.27,0,0,1,10.8.67,39.2,39.2,0,0,0,5.5,1.32c2.57.4,5.79.66,4.51,3.86" transform="translate(-42.46 -11.78)"/><path class="cls-1" d="M467,333.67c-1-.29-1.28.44-2,.8a30.8,30.8,0,0,1-5.38,1.85c-2.72.74-5.5,1.15-8,2.46a48.47,48.47,0,0,0-6.23,4.26,38,38,0,0,1-10,5.32c-2.07.75-4.29,1.09-6.32,2-1.68.73-2.56,2.22-4,3.33" transform="translate(-42.46 -11.78)"/><path class="cls-1" d="M499.67,331l-.6.13c0,2,6,4.29,7.24,4.91,4.72,2.33,11.06,3.85,16.27,2.27l-1.58,0" transform="translate(-42.46 -11.78)"/><path class="cls-1" d="M346.33,284.33c-1.87.37-.8,3.53-2.5,3.95-1.4-2.09-.92-5.18-.92-7.53,0-4.52.07-8.81,3.19-12.49,1.56-1.84,3.49-3.29,4.9-5.26" transform="translate(-42.46 -11.78)"/><path class="cls-1" d="M347,292.33c1.25-1.09.94-5.19,1.19-6.34,1.26-5.75,4.46-9.25,8.81-13" transform="translate(-42.46 -11.78)"/><path class="cls-1" d="M593.67,287.67c0-2.11-.71-2.16-2-3.76s-2-3.12-3.16-4.57-2.38-2.36-3.42-3.7c-1.63-2.1-2.64-4.28-5.23-5.28a15.8,15.8,0,0,1-5.42-3.71c-2.82-2.74-2.95-5.82-4.8-9" transform="translate(-42.46 -11.78)"/><path class="cls-1" d="M587,276.33c-.23-1.35.85-2.4,1.17-3.57A72.74,72.74,0,0,0,590,261.44a22.51,22.51,0,0,0-.5-9.17c-1-3.5-1.87-6.31-1.87-9.94" transform="translate(-42.46 -11.78)"/><path class="cls-1" d="M336.33,204.33a1.41,1.41,0,0,0-1.05.75c.64-.53.54-1.26-.22-1.5s-3.25,1.13-3.94,1.43c-2.28,1-4.43.49-7,.62-3.5.17-5.85,1.82-8.46,3.85a35.76,35.76,0,0,0-7,6.51,93.24,93.24,0,0,0-8,13.37c-.78,1.5-1.57,3-2.4,4.58-.39.74-1,1.05-.64,2.08.3.8,1.89,1.76,2,.31" transform="translate(-42.46 -11.78)"/><path class="cls-1" d="M420.33,25c5.46.08,9.23,4.5,12.34,8.67a22.25,22.25,0,0,1,3,5c1,2.52.66,5.32.66,8,0,2.25-.24,4.77.8,6.87.63,1.27,1.54,1.35,2.5,2.12s.65,1.14.68,2.34c0,1.64.74,2.93.68,4.67a7.37,7.37,0,0,1-2.14,5.11c-1.13,1.22-1.85,2.66-2.92,3.91A22,22,0,0,1,431.72,75c-4.24,3-8.62,5.77-12.92,8.69A63.88,63.88,0,0,0,413.05,88c-1.27,1.11-1.24,2-1.77,3.62-.6,1.78-1.85,3-2.67,4.68a20.35,20.35,0,0,0-1.47,5.48c-.56,3.54-1.13,7.08-1.65,10.63-.68,4.63-.36,9.24-1,13.87a94.64,94.64,0,0,0-.83,13.26q0,2.94,0,5.89c0,2.25.39,4.89-.1,7.1-.68,3.08-3.14,5.72-4.6,8.44-1.92,3.55-2.57,7.3-3.5,11.17-.78,3.25-.65,8.34,2.72,9.71,2.4,1,3.74,3.25,5.15,5.42,2.09,3.21,1.27,5.84,1.62,9.43.42,4.32,5,4.65,7.28,7.75a21.13,21.13,0,0,1,1.77,3.94,25.85,25.85,0,0,1,1.53,5.83,25.58,25.58,0,0,1,.11,8.47c-.58,3-3.15,6.12-5.22,8.22a39,39,0,0,0-3.45,3.57c-.78,1-1.18,2.32-2.62,2.55-1.8.29-3.36-1.62-4.83-.19-1,1-1.56,3.53-2.22,4.76a9.79,9.79,0,0,0-.87,1.51c-.32,1,.23,2.14-.15,3.16-1.08,2.9-6.75,3.89-9.33,3a9.86,9.86,0,0,1-3.47-1.75c-1.09-1-.91-1.77-2.45-1.9-2.51-.21-4.33,3.28-6,4.71s-3.08,2.59-4.62,3.87-2.91,2.59-4.75,1.75a13.52,13.52,0,0,1-2.09-1.63c-1.22-.89-3.09-1.36-4.2-2.37-1.75-1.6-1.07-4.64,0-6.55,1.14-2.08,7.34-5.92,2.07-7.67-1-.34-3-.27-3.82.52-1.1,1.05-.59,3.42-.58,4.7a37.38,37.38,0,0,1-.52,6.74c-.28,1.65.06,3.28-.75,4.83-1.62,3.11-3.77,2.72-6.06,1a7.44,7.44,0,0,1-2.5-3.85,42.09,42.09,0,0,1-2-5.2c-.31-1.41-1-3.51-.8-4.89.18-1.58,1.52-3.55,2.36-4.82.35-.53,1.5-1.57,1.62-2.16a2,2,0,0,0-1.83-2.22c-1.19,2.33-3.05,4.39-4.42,6.61-.85,1.38-2,6.11-4.24,5.23-.8-.31-1.21-1.77-1.43-2.43-1.18-3.49-2.23-7.31-3.05-10.88-.71-3.06.2-5.84,1.17-8.77A27.29,27.29,0,0,0,335,207c-.2-.73-1.23-3.84-1.74-4-.69-.22-2.42,1-3.09,1.19a10.2,10.2,0,0,0-3.51,1.73,24.78,24.78,0,0,1-5.66,2.91c-1.88.62-3.72,2-5.69,2.19a55.09,55.09,0,0,0-5.71,1.19c-1.85.38-3.49-2.25-4.26-3.85-1-2.07-.5-5.64-.41-8a14.36,14.36,0,0,1,3.07-8.12c1.78-2.19,4-4.64,6.77-5.46,4.91-1.46,11.53.23,14.86-4.45,2-2.79,3.87-5.93,4-9.39.12-2.76,1.69-5.08,1.37-7.94a14.88,14.88,0,0,0-1.74-5.31c-.64-1.15-1.1-1.45-.67-2.74,1.31-3.89,4.69-6.87,6.93-10.16.88-1.3,1.78-3.15,1.46-4.75s-1.7-3-2.33-4.47c-.7-1.67-1.42-3.56-.69-5.29,1.13-2.65,4.18-4.68,6.09-6.7s3.06-3.3,3-5.94a23.18,23.18,0,0,0-1-5,12.47,12.47,0,0,1,1.08-9.58,66.33,66.33,0,0,0,5.5-10.09c1.2-3.1,1.56-6.29,3.07-9.26,1.08-2.13,1-4.59,1.66-6.85.5-1.73,1.48-3.27,1.94-5,.57-2.18.17-4.2.24-6.4.12-3.85,3.87-6.27,5.48-9.57a50.42,50.42,0,0,1,6.12-9c2.21-2.71,4.71-5.38,7.13-7.91s3.58-6.24,6.14-8.89c1.6-1.65,3.62-2.87,5.25-4.49A17,17,0,0,1,392.49,25c3.31-2.06,7.5-3.26,11.22-4.37a27.57,27.57,0,0,1,8.28-1c2,0,4.12-.31,5.8.49.87.41,2,.69,2.85,1.17s.54,1,1.14,1.54,2.23.28,3,.93C426.86,25.68,421.59,28.55,420.33,25Z" transform="translate(-42.46 -11.78)"/><path class="cls-1" d="M447,55c-1.75,0-2.94-.46-2.37,1.63a32.22,32.22,0,0,0,3.15,7.05c.76,1.27,2.12,2.19,3,3.44a32.12,32.12,0,0,0,3,4.26c2.7,2.89,6.68,4.49,10,6.6,2.35,1.5,4.44,3.41,6.65,5.06,1.56,1.16,3.58,1.7,5,2.93a20.75,20.75,0,0,1,5,6.37c1.5,2.89,3.1,4.65,3.33,8a21.55,21.55,0,0,0,1.76,7.33c1.68,3.26,5.61,5.78,8.72,7.54,1.84,1,3.91,1.53,5.28,3.15a19.82,19.82,0,0,1,1.94,2.67,13.62,13.62,0,0,1,1.36,4.6c.3,1.91-.37,3.49-.41,5.39-.06,2.34-.48,5.61.16,7.88.52,1.85,2.09,3.14,2.48,5.12s.05,4.32.05,6.27c0,3.19.53,6.91-.12,10-.74,3.54-2.77,6.82-3.58,10.37-.33,1.45-.15,2.88-.43,4.33a38.78,38.78,0,0,1-1.44,4.53c-1.09,3.35-4.16,4.84-4.47,8.61a11.71,11.71,0,0,0,1.51,6.24c.62,1.24,1.39,3.45,3.08,3.42.54,2.58,2.14,5,2.16,7.66s-1.57,5.26-3.36,7.22S495,216,495,218.61s1.72,4.35,3,6.65,2.41,2.9,5,3c3.43.09,6.59-2.1,8.15,2.34,1,2.82,0,5.76,1.85,8.29s4.77,3.39,7.26,5a6.32,6.32,0,0,0,3.82,1.45c1.66.06,3.45-.26,5.14-.3,2.7-.05,6.58-2.37,9.19-1.42,3.67,1.33,3.93,9.25,8.78,8.89,1.87-.14,5.55-3.29,7-4.18,1.68-1,3.4-2,5.08-3,3.28-2,5.42-5.25,8.06-8,1.29-1.32,2.63-4,2.27-6a14.21,14.21,0,0,0-2.36-4.34A5.76,5.76,0,0,1,569,227a5.09,5.09,0,0,0,2.72-1.1c1.69-1.08,4.49-2.35,5.81-3.9s.86-3.38,0-5.23c-1.27-2.82-2.32-5.29-4.75-7.23-1.58-1.27-4.87-2.63-6-4.48a8.65,8.65,0,0,1-.63-1.89,7.82,7.82,0,0,1,2.28-8.34c1.72-1.38,3.79-1.38,5.82-1,1.48.25,4.29,1.35,5.45.11,1.46-1.55.8-5.83-1.33-6.38-.15-2.83,3.26-3.17,5.31-3.23,1,0,2,.1,3,.06,1.62-.06,2.62-.9,4-1.73,4.27-2.58,1.65-10.72-1.22-13.82-2-2.12-3-4.45-6.2-4.52a28.88,28.88,0,0,0-6.23.15c-2.26.48-4.95,2.44-7.14,1.54-2-.83-3.86-3.21-3.68-5.44.25-3.19,3.88-6.42,6.13-8.52s2.2-3.86,1.52-6.86c-1-4.44-4.14-5.45-7.93-6.82-2.77-1-4.75-2.85-7-4.69s-5.1-2.56-7.12-4.62a87.51,87.51,0,0,1-7.24-9c-1.87-2.5-2.36-5.47-4-8.11a17.48,17.48,0,0,0-7-6.3c-2.82-1.35-3-3.74-3.66-6.67-.3-1.32-.05-2.53-.24-3.81-.25-1.69-1.82-3.1-2.93-4.33-1.88-2.09-2-4.71-2.46-7.39-.9-5.41-3-10.38-8-13.31.14-.93.62-1.35.68-2.34.19-3.38-1.87-6.79-4.12-9.11a14.14,14.14,0,0,0-4.62-3.52c-.92-.34-2-.34-3-.6a8.21,8.21,0,0,1-4-2.59,52.68,52.68,0,0,0-4.84-4.69c-1.55-1.24-3.16-2.13-3.47-4.23-.21-1.42,0-2.6-.61-4a21.53,21.53,0,0,0-4.07-6.63c-1.05-1.13-2.37-1.68-2.68-3.14s-.35-2.43-1.87-3.48a18.81,18.81,0,0,0-13.72-2.49c-1,.21-2,1-3,1.12-1.84.16-3.86-1.53-5.41-2.37a10.2,10.2,0,0,1-3.59-2.41,13.28,13.28,0,0,0-1.76-2.32,11.93,11.93,0,0,0-6-3.14c-2.13-.4-4.25-1.68-6.37-1.89-3.79-.36-8.42,3.6-10.22,6.71a17.33,17.33,0,0,0-1.3,3.47c-.45,1.69,0,2.82.45,4.25a32.24,32.24,0,0,0,1.4,4.57c.7,1.55,1.88,2.82,2.5,4.53C438,39,440.45,41.71,441,45c.31,1.85,1.26,3.59,1.67,5.35a13.33,13.33,0,0,0,.71,2.33c.77,1.65,2.68,2.17,3.62,3.59C446.33,56.28,445.66,56.31,447,55Z" transform="translate(-42.46 -11.78)"/><path class="cls-1" d="M589.67,183l.11-.55a8.07,8.07,0,0,1,3.25-.15c.9.25,1.47,1.24,2.32,1.64s1.92.22,3,.5a7.89,7.89,0,0,1,2.13,1.21c1.85,1.14,4,1.71,5.46,3.32s3.4,3,5.06,4.64c1.88,1.88,3,4,5.38,5.4,2,1.18,2.67,3.48,3.95,5.32,1.7,2.44,2.31,4.56,3.39,7.28.8,2,2.24,3.37,2.77,5.51.47,1.88,1.27,3.65,1.84,5.49A92.28,92.28,0,0,1,630.85,233c.22,1.19-.05,2.43.21,3.57.21.93.63,1.24.61,2.39,0,2.2.64,3.72.67,6" transform="translate(-42.46 -11.78)"/><path class="cls-1" d="M433.67,390.33v-.44c0,1.84.13,3.74,0,5.58-.07,1.43-.72,2.68-.78,4.09a18.38,18.38,0,0,0,1.42,6.56c1.16,3.22,2.27,7.2,4,10.13a70.64,70.64,0,0,1,4,6.78,17.74,17.74,0,0,0,1.86,2.6c.56.84.84,1.84,1.46,2.71,1.56,2.18,3.14,4.38,4.63,6.62a19.13,19.13,0,0,0,4.74,4.87c3.66,2.82,3.6,7,2.65,11.18" transform="translate(-42.46 -11.78)"/><path class="cls-1" d="M521,383c0,4.44,1.37,8.75,1.35,13.23,0,5.29-1.44,10.3-2,15.47-.27,2.54-1.31,4.92-1.89,7.38-.41,1.77-.62,3.54-1.18,5.3-.81,2.53-2.22,4.76-2.92,7.31s-2.06,6.86-4,8.64" transform="translate(-42.46 -11.78)"/><path class="cls-1" d="M447.67,367c.14-2.44,3.32-3,5-3.7s3.32-2.36,5.3-2.85,3.83-.69,5.72-1.12c6.32-1.43,12.68-.93,19.13-1,2,0,3.72.67,5.79.66s4.23,0,6.34,0c2.49,0,5,0,7.46,0,3,0,7.34-1.09,9-3.9L511,355" transform="translate(-42.46 -11.78)"/><path class="cls-1" d="M485.67,375.67c-.23.94.29,1.22.82,1.82a22,22,0,0,1,3.19,3.87,101.83,101.83,0,0,1,6,13.14c.67,1.74.46,3.39.77,5.16.23,1.34.74,2.65,1,4,.94,4.07.15,9.19.15,13.38" transform="translate(-42.46 -11.78)"/><path class="cls-1" d="M469,376.33c-1.86,2.08-3.21,6-4,8.55-1.23,3.9-1.78,8-2.66,12a70.46,70.46,0,0,0-2,16.81" transform="translate(-42.46 -11.78)"/><path class="cls-1" d="M479,507a59.83,59.83,0,0,0,1.13,10c.55,3.31,1.34,6.45,1.62,9.81a23.38,23.38,0,0,0,.73,5c.34,1.1,1.11,2.06,1.19,3.24" transform="translate(-42.46 -11.78)"/><path class="cls-1" d="M828.33,161.67c2.93-1.41,7.35-1.78,10.71-1.35a14,14,0,0,1,7.29,3.33c.44.35,1.59,1,1.88,1.5s-.07,1.24.08,1.89c.18.8.6,1,.72,1.95a8.88,8.88,0,0,1,0,2,20.89,20.89,0,0,1-3.35,8.38c-1.6,2.57-4.11,4.11-6.72,5.59a26.37,26.37,0,0,1-13,3.35,40.42,40.42,0,0,1-6.63-.33c-1.39-.24-2.59-.7-3.91-1.06-1.57-.43-2.65-1.81-4.06-2.63-3-1.74-4.45.47-6.33,2.7" transform="translate(-42.46 -11.78)"/><path class="cls-1" d="M89.67,341.67c-1.59-1.18-1.5-2.15-.71-3.55,1.62-2.86,2.14-5.05,5.07-6.85,2.21-1.36,4.83-1.08,7.16-2.42s5-2.86,7.79-3.17c5.75-.64,10.13-5.8,13.54-10a17.74,17.74,0,0,0,2.55-3.28c.71-1.47.49-2.45.58-4,.11-1.83.94-3.59.85-5.42a13.16,13.16,0,0,0-3.5-8" transform="translate(-42.46 -11.78)"/><path class="cls-1" d="M406.67,139.67a3.89,3.89,0,0,1-.28-.57,5,5,0,0,0,.69-1.08c.36-.63.5-.5,1.08-.86,1-.63,1.94-1.71,3.16-1.81s2.28-.84,3.51-1a3.45,3.45,0,0,1,1.5.27,9.45,9.45,0,0,0,2.1.07,6.54,6.54,0,0,1,2.92,1c.4.23.81.54,1.24.75a5.13,5.13,0,0,0,1.21.27c.21,0,.28.27.51.32s.57,0,.85,0,.52.27.83.32.45-.07.67,0a9,9,0,0,0,1.72.34c.73,0,1.95.59,2.51.1l-.24-.09" transform="translate(-42.46 -11.78)"/><path class="cls-1" d="M407.67,142.67c.12.58,1.87,1.39,2.36,1.67.73.42,1.5.6,2.24,1s1.15,1,2.08,1c1.91.18,3.52-.62,5.33-.68a3,3,0,0,0,1.16-.34c.48-.19.91-.24,1.4-.39a14,14,0,0,0,3.09-1.86c.89-.57,1.84-1.09,2.67-1.73.67-.52,1.9-1.45,2-2.35" transform="translate(-42.46 -11.78)"/><path class="cls-1" d="M412,136.67l-.27.06c0,.41-.33.56-.42.91a8.85,8.85,0,0,0,0,1.95,4.18,4.18,0,0,0,1.92,3.08,5.6,5.6,0,0,0,5.76.59c1.75-1,3.53-2.85,3.66-4.93a2.67,2.67,0,0,0-1-2.15,3.33,3.33,0,0,0-1.56-1.19,12.22,12.22,0,0,0-2.45-.66" transform="translate(-42.46 -11.78)"/><path class="cls-1" d="M415.67,136.67c-.57.44-.32,1.45-.33,2.07,0,1.1,0,1.74,1.33,1.92,1.68.22,1.18-1.2.88-2.17-.19-.6-.08-1.07-.73-1.2s-1.33.42-1.82.72" transform="translate(-42.46 -11.78)"/><path class="cls-1" d="M454.33,137.33a9.51,9.51,0,0,0,.33-1.67,3.89,3.89,0,0,1,.48-1.86c.4-.85,1-1.42,1.43-2.2a4.94,4.94,0,0,1,2.09-2.26,11.5,11.5,0,0,0,1.84-1.87,13.54,13.54,0,0,1,2.79-2,17,17,0,0,1,4.11-1.89c1.2-.32,2.36-1,3.58-1.28a8.48,8.48,0,0,1,3.87.39c1.05.32,1.94.9,2.88,1.21.52.17,1.13.24,1.61.41s.75.6,1.32.68" transform="translate(-42.46 -11.78)"/><path class="cls-1" d="M455.33,136.33h-.22c.7-.14,1.31.42,1.93.66a10.58,10.58,0,0,0,6,.09,22.72,22.72,0,0,0,7.17-3,25.38,25.38,0,0,1,3.29-2.09,12.51,12.51,0,0,0,2.86-2.34c.87-.77,1.83-1.6,2.74-2.32s2.42-1.93,2.77-3.25l-.5.25" transform="translate(-42.46 -11.78)"/><path class="cls-1" d="M464,126.33c-.82-.22-1.07.79-1.32,1.32a6.67,6.67,0,0,0-.88,3.27c.31,2.57,4.22,3.16,6.05,2.46a5.22,5.22,0,0,0,3.14-6,4,4,0,0,0-2.29-2.82,3.45,3.45,0,0,0-2.47-.08c-1,.36-1.25,1.15-1.89,1.88" transform="translate(-42.46 -11.78)"/><path class="cls-1" d="M464.67,128.33l-.28.06a2.45,2.45,0,0,0,.34,2.28,3,3,0,0,0,1.27.59c.69.15.75-.07,1.21-.58.69-.76,1.81-2.14,1.07-3.31a1.58,1.58,0,0,0-1.62-.43c-1.08.27-1.15,1.37-2,2.06" transform="translate(-42.46 -11.78)"/><path class="cls-1" d="M434.67,163.67c0-1.11-1.71,1-1.93,1.26-1,.95-2.24,1.95-2.36,3.41-.18,2.12,2.77,3.71,4.46,4.17a14.74,14.74,0,0,0,4.84.17,13.45,13.45,0,0,1,2-.34,4.69,4.69,0,0,1,2.68.58,8.56,8.56,0,0,0,2.58,1c.42.08.82,0,1.23.09a6.5,6.5,0,0,0,1.5.31c.83,0,1.67,0,2.5,0a3.62,3.62,0,0,0,2.09-1.1c1.22-.93,1.56-2.58,2.82-3.5a12.52,12.52,0,0,1,2.17-1,7.5,7.5,0,0,0,1.6-.6c.51-.37,1-.8,1.49-1.18a4.2,4.2,0,0,0,2-2.63,12.11,12.11,0,0,1,.06-1.33c.14-.54.34-.73.18-1.33a3.34,3.34,0,0,0-2-2.33c-1-.46-2-.69-2.93-1.17a8.4,8.4,0,0,0-4.34-.83" transform="translate(-42.46 -11.78)"/><path class="cls-1" d="M452,124c4.16-5.28,10.73-8,16.42-11.26.56-.32,1.25-.52,1.82-.81a7.06,7.06,0,0,1,1.84-.95,18.91,18.91,0,0,1,3.16,0,21.4,21.4,0,0,1,3.43,0c.77.13,1.13.46,2,.28s1.94-.31,2.92-.46l.1.19" transform="translate(-42.46 -11.78)"/><path class="cls-1" d="M427.67,129.67c.18-.64-.49-1.33-1-1.57a27.06,27.06,0,0,0-3.61-1.52c-1.23-.41-2.49-.64-3.73-1s-2.33-.17-3.51-.41a14.17,14.17,0,0,0-5.51,0,9.07,9.07,0,0,1-2.32.17,18.17,18.17,0,0,0-1.92,0,4.29,4.29,0,0,0-2.77,1.7" transform="translate(-42.46 -11.78)"/><path class="cls-1" d="M424,184.67c.56.12.85-.38,1.35-.37.25,0,.44.31.69.39a7.59,7.59,0,0,0,1.87,0h2.31a17.89,17.89,0,0,0,3.93-.16c1.08-.24,2.15-.43,3.24-.58a7.42,7.42,0,0,0,1.81-.46c.48-.21,1-.33,1.46-.53.7-.31,1.25-.84,2-1.11s1.58-.43,2.35-.74.84-.47,1.64,0a7.08,7.08,0,0,0,4.68.93,7.79,7.79,0,0,0,2.26-.75,6.78,6.78,0,0,1,.75-.61,2.36,2.36,0,0,1,1-.33c.7-.11,1.08.3,1.73.35a20.81,20.81,0,0,0,4.75-.08,57.94,57.94,0,0,0,12.3-3.91,5,5,0,0,0-1.44.31" transform="translate(-42.46 -11.78)"/><path class="cls-1" d="M424.67,185.33c0-.81,3.29.28,3.72.43a19.14,19.14,0,0,0,3.6.53c.81.11,1.6.35,2.4.38a52.25,52.25,0,0,0,10.38-.27,19,19,0,0,1,3.16-.08A38.86,38.86,0,0,0,452,186a39.91,39.91,0,0,0,8-1.22,42.74,42.74,0,0,1,4.67-1.41,15.68,15.68,0,0,0,4-1.22c2.37-1.13,6-2.46,7.29-4.85" transform="translate(-42.46 -11.78)"/><path class="cls-1" d="M425.67,186.33a1.26,1.26,0,0,0-1.23-.35c.59.26,1.18.56,1.74.87,1.23.69,2.57,1.12,3.81,1.8a30.48,30.48,0,0,0,6.74,2.41c.72.19,1.26.55,2,.69.59.12,1.16.26,1.73.42a12.64,12.64,0,0,0,3.41.5,49,49,0,0,1,5.3.3,23.52,23.52,0,0,0,3.88-.32c1.32-.08,2.53,0,3.84-.24,1.57-.24,3-.61,4.6-1a14.1,14.1,0,0,0,3.41-1,28.08,28.08,0,0,0,4.08-2.7,11.56,11.56,0,0,0,2.32-2c.49-.63.9-1.37,1.43-2a7,7,0,0,0,1.06-1.17c.6-1.09.83-2.35,1.5-3.45s2.62-3.85,1.35-5.11" transform="translate(-42.46 -11.78)"/><path class="cls-1" d="M408.33,200.33c.46-.13,1,.34,1.34.58a6.35,6.35,0,0,0,1.82.91,23.13,23.13,0,0,1,2.19,1.17,15.15,15.15,0,0,1,2.81,1.33c1.57,1.07,3.11,2.26,4.73,3.26,1.13.7,2.43,1,3.54,1.74.87.58,1.68,1.25,2.56,1.83a34.5,34.5,0,0,1,2.68,2.19c.51.41.81.86,1.29,1.31a4.77,4.77,0,0,0,1,.67c.55.3.85.7,1.34,1a10.32,10.32,0,0,0,2,.9c.53.2,1.14.25,1.66.47.74.32,1.52.82,2.27,1.18s1.59.67,2.41,1,1.71,1,2.66,1.33a6.62,6.62,0,0,0,2.4.76c1.22.05,2.38.36,3.61.34s2.51.06,3.75,0c.64,0,1.17-.24,1.79-.32a8.78,8.78,0,0,0,2.34-.34c2.55-1,5.19-1.37,7.4-3.05a52,52,0,0,0,5.39-4.66c.84-.85,1.52-1.68,2.3-2.58A31.06,31.06,0,0,0,476,209c.93-1.31,2.22-2.22,3.22-3.43,1.22-1.47,2-3.32,3.06-4.87.55-.78,1.22-1.37,1.75-2.2s1-1.71,1.62-2.51c1.13-1.49,2.46-2.83,3.51-4.38.84-1.24,1.66-2.46,2.56-3.65a6,6,0,0,0,1.56-3,11.22,11.22,0,0,1,1.58-4.52,48.79,48.79,0,0,0,2.42-5.51,26.88,26.88,0,0,0,1.92-6.93c.15-1,.4-2.06.56-3.1.22-1.41.29-2.85.45-4.27a16.28,16.28,0,0,0,.08-2.22c0-1.49.28-2.88.36-4.36.1-1.94-.64-3.8-.71-5.73-.24-7.17.86-14.68-1-21.67" transform="translate(-42.46 -11.78)"/><path class="cls-1" d="M49.75,312.25l-.2,0a3.19,3.19,0,0,1-.32.82,16.11,16.11,0,0,0-.85,2.61,16.37,16.37,0,0,0-.14,3.21,23,23,0,0,0,0,2.81c.18,1.44.67,2.86,1,4.28a9.55,9.55,0,0,0,1.47,3.74,27.54,27.54,0,0,1,1.54,2.59,15.08,15.08,0,0,0,3.48,4.89c2.78,2.26,7.31-.52,9.25-2.74a13.18,13.18,0,0,0,2.59-4.7,8.67,8.67,0,0,0,.44-2.36c0-.5.27-2.63-.26-2.94" transform="translate(-42.46 -11.78)"/><path class="cls-1" d="M47.5,316.5c0-.53-.6-.19-.79,0-.92.72-1.28,2.26-1.83,3.23A15.29,15.29,0,0,0,43,328c.06,1.31.43,2.59.52,3.91a9.82,9.82,0,0,0,.79,3.93c.71,1.38,1.3,2.76,2,4.16a6.54,6.54,0,0,0,2,2.8c.76.57,1.25,1.36,2,1.94a12.12,12.12,0,0,0,2.65,1.44,7.49,7.49,0,0,0,1.78.83,3.27,3.27,0,0,0,1.92-.52,15.2,15.2,0,0,0,4.61-3.72,6.74,6.74,0,0,0,1.12-1.92c.38-.93,1.13-2.17.13-2.87" transform="translate(-42.46 -11.78)"/><path class="cls-1" d="M47.5,341.25A11.75,11.75,0,0,0,49,347.37a24.8,24.8,0,0,0,2.79,2.92c.91,1,1.41,2.33,2.54,3.18A25.72,25.72,0,0,0,59.21,356a5.72,5.72,0,0,0,2.29.76,12.21,12.21,0,0,0,2.29,0,13.49,13.49,0,0,0,2.41-1.05,5.45,5.45,0,0,0,1.86-.89,9.9,9.9,0,0,0,3-3.74c1-2.07,1.61-4.85-.1-6.71a7,7,0,0,0-3.22-2.37,5.55,5.55,0,0,0-3.5.31" transform="translate(-42.46 -11.78)"/><path class="cls-1" d="M63,345.75a1.51,1.51,0,0,0-1,.27c-.54.33-1,.83-1.51,1.18a6.7,6.7,0,0,0-1.77,1.67,4.09,4.09,0,0,0-.66,3.9A4.74,4.74,0,0,0,62,356a6.71,6.71,0,0,0,5.15-2.25,4.49,4.49,0,0,0,1.36-2.3,4.55,4.55,0,0,0-.46-2c-.57-1.53-1.45-3.08-3.09-3.62-2-.66-3.6,1.5-5,2.63" transform="translate(-42.46 -11.78)"/><path class="cls-1" d="M53.75,337.75c0,.37-.38.63-.59.87a5.07,5.07,0,0,0-1.45,2.77c-.08,2.11,1.67,5.33,4.17,4.5s2.55-5.38,1.18-7.23c-.76-1-1.52-1.51-2.83-.86A10,10,0,0,0,50.75,341" transform="translate(-42.46 -11.78)"/><path class="cls-1" d="M55.75,324.75c-1.46,1-2.34,3.17-2.74,4.78a6.29,6.29,0,0,0,0,3.94,3.09,3.09,0,0,0,3,1.74,4,4,0,0,0,2.91-2,4.05,4.05,0,0,0,.27-3.62,9,9,0,0,0-2-3.18,3.38,3.38,0,0,0-2-1.55c-1.43-.1-2.33,1.76-3,2.68" transform="translate(-42.46 -11.78)"/><path class="cls-1" d="M51,300.5c-.56.46,0,1.06.39,1.44,1.31,1.37,4.21.2,5.56-.42,1-.47,2-1,3-1.51,1.55-.78,3.15-1.33,4.72-2a4.45,4.45,0,0,0,1.83-1.18c.56-.77.15-1.56-.24-2.29" transform="translate(-42.46 -11.78)"/><path class="cls-1" d="M856.75,171.75a15.63,15.63,0,0,0-2.55,2,7.24,7.24,0,0,0-1.48,1.72c-.19.4-.36.78-.59,1.17a3.6,3.6,0,0,0-.61,2.52c.25,1.44,1.48,2.11,2.73,2.52a21.32,21.32,0,0,0,5,1.36c1.25.09,2.37.06,3.26-1,1.15-1.32,1.28-3.16,1.28-4.82a6.2,6.2,0,0,0,0-1.49c-.09-.33-.32-.63-.41-1-.23-.84-.38-.76-1.14-1.18s-1.48-1-2.3-1.34a3.68,3.68,0,0,0-1.64-.47C857.19,171.87,856,173,856.75,171.75Z" transform="translate(-42.46 -11.78)"/><path class="cls-1" d="M860.25,193.75c-.74.36-1.59.61-2.32,1a9.35,9.35,0,0,0-2.06,2.2c-.44.5-1,.85-1.11,1.53-.32,1.59.75,2.89,1.77,4a7.17,7.17,0,0,0,2.1,1.67c.74.34,1.59.48,2.31.85a2.15,2.15,0,0,0,2.16.28,3.62,3.62,0,0,0,1.21-1.06,6,6,0,0,0,1.15-1.91,15.37,15.37,0,0,0,.77-1.81,8.7,8.7,0,0,0,0-1.91,3.59,3.59,0,0,0-.72-2.68,5.55,5.55,0,0,0-2.7-1.82,4.74,4.74,0,0,0-1.52-.34C860.57,193.78,859.86,194.37,860.25,193.75Z" transform="translate(-42.46 -11.78)"/><path class="cls-1" d="M864,213.75l0-.21c-.86-.24-1.79.36-2.52.76a5.81,5.81,0,0,0-2.93,3.14,4.53,4.53,0,0,0-.71,2,9.16,9.16,0,0,0,.26,1.15,4.24,4.24,0,0,0,.94,1.9,3.19,3.19,0,0,0,1.7.75c.47.14,1,.43,1.49.52a4,4,0,0,0,2.61-.58c1.61-.82,2.09-2.22,2.22-3.94.06-.75.22-1.47.27-2.22.07-1-.36-1.34-1-2.07a12,12,0,0,0-2.23-2.23C863.28,212.21,862.67,212.7,864,213.75Z" transform="translate(-42.46 -11.78)"/><path class="cls-1" d="M847.75,176.5c-.58.13-.81,1-.94,1.46a10.31,10.31,0,0,0-.28,4.55c.28,1.21,1.37,1.78,2.34,2.35a18.09,18.09,0,0,0,3.1,1.94,32.48,32.48,0,0,0,3.27.82,10.12,10.12,0,0,0,2.81.13,7.42,7.42,0,0,0,2.68-1.27,5.16,5.16,0,0,0,2.15-1.76,11.4,11.4,0,0,0,1.86-3.75c.22-1.26.44-2.49.77-3.72a15.85,15.85,0,0,0,.5-4,21.09,21.09,0,0,0-.12-4.62,14.61,14.61,0,0,0-1.07-2.44,6.32,6.32,0,0,0-.72-1.61c-.29-.34-.75-.45-1.11-.71-.54-.4-.89-1-1.43-1.39s-1.12-.92-1.69-1.34a4.26,4.26,0,0,0-2.37-.63,9.68,9.68,0,0,0-1.48-.28c-.62,0-1.2.26-1.83.28a8,8,0,0,0-3.46.86c-2.1,1-2.84,2.22-2.48,4.64" transform="translate(-42.46 -11.78)"/><path class="cls-1" d="M855,188.5c-.42.31-.82.51-1.23.8-1.48,1-2.11,2.89-2.84,4.46-.34.74-.56,1.56-.93,2.28a10,10,0,0,0-.76,1.3,6.58,6.58,0,0,0-.19,4.09,9.14,9.14,0,0,0,2.32,3.46,6.29,6.29,0,0,0,2.41,1.31,19.27,19.27,0,0,1,1.79.82c1,.47,2.43.23,3.55.23a6.5,6.5,0,0,0,3.14-.51,13,13,0,0,0,3.23-3c.65-.78,1.13-1.69,1.79-2.45a4.2,4.2,0,0,0,.87-1.06q.24-.83.53-1.65a25.92,25.92,0,0,0,1.63-4.29,25.45,25.45,0,0,0,1-5,23.17,23.17,0,0,0-.06-4,6.75,6.75,0,0,0-1.21-2.56c-.29-.41-.48-.85-.75-1.27s-.84-.77-1.19-1.22c-.2-.25-.18-.57-.52-.72-.81-.38-1.61,1-2,1.48" transform="translate(-42.46 -11.78)"/><path class="cls-1" d="M858.5,207.75c-.36.47-.77.79-1.1,1.28-.85,1.28-1.9,2.42-2.77,3.67a9.44,9.44,0,0,0-1.76,4,7.75,7.75,0,0,0,0,3.52,13.21,13.21,0,0,0,1,1.74,4,4,0,0,0,1.51,1.43,6.12,6.12,0,0,0,2.88,1.32c1,0,1.94.21,2.92.25a6.29,6.29,0,0,0,4.19-1.51,28.24,28.24,0,0,0,4.13-3.49c1.32-1.37,2.44-3,3.64-4.48a19.19,19.19,0,0,0,2-4,13.42,13.42,0,0,0,1-4,10.39,10.39,0,0,0-.18-4.56,9.06,9.06,0,0,1-.73-2.2,13.6,13.6,0,0,0-.07-2c-.36-1.23-1.71-2.16-2.36-3.23-.28-.46-.33-.69-.87-.62a1.47,1.47,0,0,0-.94.75,10.87,10.87,0,0,1-1.79,1.88" transform="translate(-42.46 -11.78)"/><path class="cls-1" d="M864.25,223.5c-1.17.92-2.92,2.61-3,4.2-.07,1.09,1.44,1.52,2.31,1.57a8.86,8.86,0,0,0,4.57-.52,32.27,32.27,0,0,0,5.35-4,30.11,30.11,0,0,0,2.15-2.22A7.46,7.46,0,0,0,877.5,220a9.69,9.69,0,0,0,.81-5.61,39.92,39.92,0,0,1-.5-4c-.12-1.3.05-2.2-1.32-2.6" transform="translate(-42.46 -11.78)"/><path class="cls-1" d="M865.75,225l-.21,0a2.81,2.81,0,0,0,.11,1.75c1.16,2,4.61-1.57,5.36-2.47.47-.57.57-.63.45-1.28a9.15,9.15,0,0,0-.8-2.57c-1.48-2.73-5.23,2.66-5.92,3.52" transform="translate(-42.46 -11.78)"/><path class="cls-1" d="M791,202.75l-.21,0a1.74,1.74,0,0,0,.09,1.13c.42,1.61.69,3.16,2.08,4.24a13.68,13.68,0,0,0,3.93,2.21,15.85,15.85,0,0,0,4.19.37,18.38,18.38,0,0,0,3.48.15,29.18,29.18,0,0,1,3.27-.66c.48,0,.93.05,1.41,0s1.09-.22,1.7-.24a20,20,0,0,1,2.85-.13c2.11.26,4.25.42,6.37.66A19.93,19.93,0,0,1,826,212.4a36.54,36.54,0,0,1,3.43,1.39c1.17.68,2.33,1.47,3.46,2.21,2.85,1.88,4.67,5.33,8.11,6.25" transform="translate(-42.46 -11.78)"/></svg>