<svg id="Layer_2_copy" data-name="Layer 2 copy" xmlns="http://www.w3.org/2000/svg" viewBox="0 0 835.85 570.62"><defs><style>.cls-1{fill:none;stroke:#fff;stroke-miterlimit:10;}</style></defs><title>white-line-girl</title><polygon class="cls-1" points="431.86 377.93 431.88 387.98 427.2 393.89 425.17 401.26 429.33 423.75 431.1 425.25 436.7 445.23 440.22 437.64 439.22 416.9 438.46 415.26 439.23 413.96 439.2 411.93 440.36 408.43 439.7 401.42 437.7 397.26 435.91 379.31 433.91 375.96 431.86 377.93 431.86 377.93"/><polygon class="cls-1" points="433.2 393.26 432 392 433.96 426.49 436.58 428.54 434.14 394.51 433.2 393.26 433.2 393.26"/><polyline class="cls-1" points="441.2 383.93 440.64 384.04 447.86 419.3 446.48 431.25 444.53 430.59"/><polyline class="cls-1" points="425.2 385.26 425.06 384 423.71 385.96 425.16 427.96 427.09 430.63 427.2 433.93"/><polyline class="cls-1" points="435.86 458.59 435.26 463.78 432.48 465.96 431.85 467.91 434.57 471.93 438.22 473.96 441.73 471.79 440.33 466.43 441.07 465.8 441.91 462.57 441.08 460.71 435.71 459.27 433.2 463.93"/><polyline class="cls-1" points="371.86 343.93 372.27 347.26 392.78 365.35 395.02 365.12 400.53 361.26"/><polyline class="cls-1" points="471.2 353.93 470.61 354.07 474.48 357.31 481.86 353.24 663.35 145.23 704.1 137.91 726.98 145.04 735.07 155.31 740.58 156.87 740.53 157.26"/><polyline class="cls-1" points="787.2 149.93 781.75 150.49 772.81 145.32 767.26 144.56 740.91 159.22 739.2 163.26"/><polyline class="cls-1" points="719.2 193.26 710.9 216.21 700.84 228.59 697.42 247.21 701.58 256.96 725.23 267.28 731.88 266.76 794.59 223.67 819.58 217.21 819.2 217.26"/><polyline class="cls-1" points="665.2 167.26 656.45 177.9 657.18 213.39 675.87 244.31 702.53 258.59"/><polyline class="cls-1" points="115.86 236.59 56.34 255.78 32.2 280.24 17.83 284.63 14.5 284.56 7.94 290.34 7.2 295.93 8.7 301.09 14.03 304.43 23.2 305.93 35 303.25 34.53 303.26"/><polyline class="cls-1" points="27.2 343.93 50.17 336.3 155.2 350.01 164.5 346.66 173.89 336.43 175.86 326.4 170.58 307.23 148.53 288.78 143 278.94 143.86 258.59"/><polyline class="cls-1" points="96.53 239.26 96.68 239.86 126.53 161.73 135.19 153.91 161.72 149.9 185.17 157.91 373.88 350.52 371.86 354.59"/><polyline class="cls-1" points="157.86 295.26 157.98 294.7 185.38 273.46 197.77 250.89 199.46 197.54 192.47 173.38 192.53 175.26"/><polyline class="cls-1" points="173.86 322.59 173.98 322.17 255.2 471.26"/><line class="cls-1" x1="247.2" y1="469.93" x2="245.2" y2="469.93"/><line class="cls-1" x1="244.53" y1="469.26" x2="241.86" y2="467.93"/><polyline class="cls-1" points="243.2 466.59 245.38 469.31 261.38 471.08 262.89 482.62 256.37 485.93 241.85 485.91 239.5 487 235.86 490.59"/><polyline class="cls-1" points="252.53 473.26 249.17 476.37 249.78 482.92 255.88 476.5 252.74 473.79 247.86 479.93"/><polyline class="cls-1" points="239.2 499.26 239.31 499.81 267.18 502.64 288.53 497.9 292.35 500.74 293.21 509.94 242.87 521.27 236.52 520.58 230.53 521.93"/><polyline class="cls-1" points="249.2 525.93 248.59 525.76 296.5 512.6 304.53 515.93 307.06 521.26 301.9 526.56 265.86 541.11 242.84 540.57 241.47 541.2 235.23 541.96 227.17 539.26 224.53 533.78 224.63 529.92 228.43 525.97 228.53 527.26"/><polyline class="cls-1" points="265.2 541.93 272.7 542.64 307.88 533.88 313.38 537.91 314.58 540.59 310.95 545.93 274.92 557.93 254.35 558 252.5 556.19 240.89 550.57 237.83 550.63 236.14 549.34 234.93 548.92 232.53 543.26"/><polyline class="cls-1" points="229.86 523.93 220.52 514.88 219.87 509.93 221.54 505.9 222.71 504.77 223.16 502.56 223.91 501.28 223.25 499.56 237.5 434.59 239.2 431.93"/><polyline class="cls-1" points="261.86 557.93 264.4 559.36 267.17 564.48 274.2 569.28 280.05 570.11 299.56 565.02 301.59 563.65 303.75 563.11 306.73 560.78 307.93 557.93 306.53 555.26 297.29 554.63 296.53 558.59"/><polyline class="cls-1" points="285.86 501.26 277.22 507.26 275.22 511.64 281.63 512.66 289.18 510.59 289.21 506.06 286.3 504.6 282.18 504.61 277.2 507.93"/><polyline class="cls-1" points="299.86 517.93 291.93 521.91 294.61 530.54 302.14 526.34 303.15 521.92 293.2 521.26"/><polyline class="cls-1" points="305.86 539.26 296.47 542.09 293.82 546.08 294.86 550.25 301.16 548.3 305.53 544.59 304.2 540.62 297.2 542.59"/><polyline class="cls-1" points="301.86 558.59 296.86 558.95 297.14 564.67 306.44 559.21 305.54 555.66 298.53 557.26"/><polyline class="cls-1" points="640.53 445.93 633.16 447.94 627.35 453.26 626.63 459.28 632.33 462.61 644.22 458.62 645.89 450.56 643.26 446.68 637.86 449.93"/><polygon class="cls-1" points="646.53 464.59 623.05 471.74 617.85 478.61 630.52 485.11 651.25 483.62 658.55 478.61 659.73 469.39 655.59 467.18 652.68 463.93 651.73 458.74 650.36 456.73 646.53 464.59 646.53 464.59"/><polyline class="cls-1" points="628.53 472.59 625.21 472.68 620.59 476.43 627.15 483.87 632.19 476.56 628.01 473.29 622.53 477.93"/><polyline class="cls-1" points="630.53 487.26 630.42 486.7 601.35 484.58 593.7 487.89 591.87 493.3 593.18 497.28 641.9 503.3 643.51 502.57 645.86 502.59 647.2 504.59"/><polyline class="cls-1" points="599.2 489.93 592.63 493.1 599.25 497.91 604.17 491.59 599.53 489.23 594.53 492.59"/><polyline class="cls-1" points="629.2 505.93 616.91 511.29 602.55 509.9 595.86 511.95 591.17 516.93 592.33 521.46 631.45 523.84 647.72 511.11 649.91 507.59 650 506.06 654.78 503.88 657.76 501.11 657.72 491.26 656.68 488.44 656.53 484.59"/><polyline class="cls-1" points="603.2 514.59 599.72 515.18 597.09 519.24 608.93 517.23 604.03 515.27 597.86 518.59"/><polyline class="cls-1" points="607.86 524.59 596.52 530.61 596.48 533.27 598.54 534.75 627.21 528.76 630.17 524.02 629.2 523.93"/><polyline class="cls-1" points="703.2 265.93 618.06 481.28 615.46 483.98 615.86 483.93"/><polyline class="cls-1" points="309.86 552.59 341.7 563.91 402.89 558.93 430.56 540.72 433.16 537.23 439.85 533.25 478.84 552.2 534.06 555.74 597.2 525.93"/><polyline class="cls-1" points="432.53 473.93 428.63 479.41 429.2 482.59"/><line class="cls-1" x1="439.86" y1="479.26" x2="443.86" y2="486.59"/><line class="cls-1" x1="448.53" y1="471.93" x2="455.86" y2="474.59"/><line class="cls-1" x1="447.86" y1="461.26" x2="454.53" y2="458.59"/><line class="cls-1" x1="427.86" y1="459.93" x2="421.86" y2="455.93"/><polyline class="cls-1" points="363.2 336.59 375.94 334.85 427.86 305.26"/><polyline class="cls-1" points="451.86 305.93 451.43 305.89 478.58 318.74 480.14 320.64 492.86 325.28 496.87 325.26 499.86 323.26"/><polyline class="cls-1" points="541.86 277.26 539.2 278.07 537.12 280.17 539.18 286.46 543.23 285.27 545.96 281.23 543.15 278.31 537.86 279.26"/><polyline class="cls-1" points="551.86 281.93 551.73 277.39 547.21 274.06 539.7 273.25 531.17 275.21 526.67 282.59 527.15 288.63 540.53 289.93"/><polyline class="cls-1" points="322.53 295.93 328.43 295.21 327.86 301.93"/><polyline class="cls-1" points="319.2 292.59 318.63 293.03 326.56 288.56 337.95 292.58 338.36 303.42 336.73 306.78 331.26 308.49 331.2 307.93"/><polyline class="cls-1" points="401.86 337.93 401.42 337.96 403.42 336.58 469.85 330.08 475.35 331.4 479.86 335.26"/><line class="cls-1" x1="424.53" y1="321.93" x2="382.53" y2="341.93"/><polyline class="cls-1" points="457.2 319.26 456.6 319.39 463.84 324.3 480.11 326.57 478.53 326.59"/><polyline class="cls-1" points="303.86 272.59 301.37 276.54 300.44 269.01 303.63 256.52 308.53 251.26"/><polyline class="cls-1" points="304.53 280.59 305.72 274.25 314.53 261.26"/><polyline class="cls-1" points="551.2 275.93 537.42 258.62 532 254.91 527.2 245.93"/><polyline class="cls-1" points="544.53 264.59 547.56 249.7 545.2 230.59"/><polyline class="cls-1" points="293.86 192.59 292.81 193.34 292.59 191.84 273.23 197.74 255.22 224.28 257.2 224.59"/><polygon class="cls-1" points="377.86 13.26 390.2 21.93 393.2 26.96 394.67 41.81 397.17 43.93 398.54 50.94 393.48 59.95 370.58 76.3 366.15 84.59 361.1 140.82 353 160.43 355.72 170.14 360.87 175.56 362.49 185 369.76 192.74 373.06 202.51 373.17 210.98 361.88 225.32 357.05 225.13 353.96 231.4 353.81 234.56 344.48 237.55 338.55 233.9 327.92 242.48 323.17 244.23 316.89 240.23 318.93 226.01 315.12 226.53 313.26 242.81 307.2 243.79 302.66 234.74 301.87 229.85 305.84 222.87 304.01 220.65 295.35 232.49 290.86 219.18 292.55 195.27 290.81 191.26 267.15 200.47 262.89 196.62 262.48 188.66 265.55 180.55 272.32 175.08 287.18 170.64 292.58 153.31 290.16 145.26 297.1 135.1 298.56 130.35 296.23 125.88 295.54 120.59 304.6 107.95 303.59 102.98 317.08 55.8 350.02 13.3 369.53 7.93 375.33 8.41 378.17 9.59 379.31 11.13 382.27 12.05 377.86 13.26 377.86 13.26"/><polygon class="cls-1" points="404.53 43.26 402.16 44.89 411.25 59.64 432.88 74.23 442.94 95.9 458.89 109.27 460.25 113.87 460 127.14 462.48 132.26 452.49 176.4 454 182.64 457.08 186.05 459.24 193.72 452.48 206.87 455.49 213.52 468.62 218.83 470.47 227.12 481.56 233.59 495.89 231.87 504.67 240.76 524.84 225.64 527.11 219.68 524.75 215.35 526.52 215.29 535.06 210.29 535.09 205.06 530.34 197.83 524.33 193.35 523.71 191.46 525.98 183.12 537.25 182.19 535.91 175.81 541.22 172.57 544.27 172.63 548.26 170.9 547.05 157.08 540.85 152.56 527.48 154.25 523.79 148.81 529.92 140.29 531.44 133.42 487.51 87.23 487.26 83.43 473.88 58.4 474.56 56.06 470.44 46.95 465.82 43.43 462.85 42.83 450.53 31.32 449.93 27.31 441.31 14.06 427.59 11.57 424.63 12.69 415.63 7.91 413.88 5.59 401.53 0.56 391.31 7.28 390.01 10.74 400.9 40.92 404.52 44.52 404.53 43.26 404.53 43.26"/><polyline class="cls-1" points="547.2 171.26 547.31 170.71 550.57 170.56 552.88 172.21 555.89 172.71 573.91 187.28 589.86 233.26"/><polyline class="cls-1" points="391.2 378.59 391.2 378.15 390.45 387.82 415.2 439.26"/><polyline class="cls-1" points="478.53 371.26 474.81 412.64 467.86 428.59"/><polyline class="cls-1" points="405.2 355.26 415.53 348.71 459.98 347.28 468.99 343.37 468.53 343.26"/><polyline class="cls-1" points="443.2 363.93 454.01 387.92 455.2 405.26"/><line class="cls-1" x1="426.53" y1="364.59" x2="417.86" y2="401.93"/><line class="cls-1" x1="436.53" y1="495.26" x2="441.2" y2="523.26"/><polyline class="cls-1" points="785.86 149.93 796.58 148.58 805.75 153.41 805.83 155.3 806.55 157.25 806.55 159.28 803.2 167.66 796.48 173.24 783.47 176.59 772.93 175.2 768.86 172.56 762.53 175.26"/><polyline class="cls-1" points="47.2 329.93 46.49 326.38 51.55 319.53 66.5 313.94 82.59 300.63 84.03 291.21 80.53 283.26"/><polyline class="cls-1" points="364.2 127.93 363.92 127.35 364.62 126.27 372.36 122.58 381.34 124.95 381.85 125.28 388.43 126.02 388.2 125.93"/><polyline class="cls-1" points="365.2 130.93 371.87 134.62 378.36 133.59 387.53 127.26"/><polyline class="cls-1" points="369.53 124.93 369.26 124.99 368.85 125.9 368.86 127.85 370.78 130.94 376.54 131.53 380.2 126.59 379.2 124.44 377.65 123.25 375.2 122.59"/><polyline class="cls-1" points="373.2 124.93 372.87 127 374.2 128.92 375.08 126.75 374.35 125.55 372.53 126.26"/><polyline class="cls-1" points="411.86 125.59 412.68 122.06 420.84 113.75 428.52 110.58 438.2 113.26"/><polyline class="cls-1" points="412.86 124.59 412.64 124.59 414.57 125.26 420.53 125.35 436.6 115.6 439.37 112.35 438.86 112.59"/><polyline class="cls-1" points="421.53 114.59 420.21 115.91 419.32 119.18 425.37 121.64 428.52 115.61 426.23 112.79 423.76 112.71 421.86 114.59"/><polyline class="cls-1" points="422.2 116.59 421.92 116.65 422.26 118.94 423.53 119.52 424.74 118.94 425.81 115.64 424.2 115.2 422.2 117.26"/><polyline class="cls-1" points="392.2 151.93 390.27 153.19 387.91 156.59 392.36 160.76 409.7 162.6 411.79 161.5 414.61 158 418.38 156.4 421.88 152.59 422.12 149.93 420.14 147.59 412.86 145.59"/><polyline class="cls-1" points="409.53 112.26 429.61 99.24 441.1 99.07 441.2 99.26"/><polyline class="cls-1" points="385.2 117.93 384.22 116.35 363.63 113.56 360.86 115.26"/><polyline class="cls-1" points="381.53 172.93 382.88 172.56 383.57 172.94 402.54 169.34 408.86 170.28 411.12 169.53 411.87 168.92 412.86 168.59 419.34 168.86 431.64 164.95 430.2 165.26"/><polyline class="cls-1" points="382.2 173.59 422.23 171.66 433.53 165.59"/><polyline class="cls-1" points="383.2 174.59 381.96 174.25 396.28 180.02 422.46 178.69 431.35 170.81 434.2 162.26"/><polyline class="cls-1" points="365.86 188.59 402.2 209.5 413.75 210.29 423.49 206.9 446.72 179.91 457.86 146.69 456.53 114.93"/><polyline class="cls-1" points="7.28 300.51 7.08 300.56 5.92 303.99 5.82 310 13.27 325.5 22.52 322.76 25.11 318.06 25.28 312.76"/><polyline class="cls-1" points="5.03 304.76 4.24 304.72 0.51 316.28 1.82 324.12 5.79 331.08 12.26 335.28 14.18 334.76 18.79 331.04 19.91 329.13 20.03 326.26"/><polyline class="cls-1" points="5.03 329.51 6.51 335.63 11.83 341.73 19.02 345.03 21.32 344.98 25.59 343.04 28.6 339.29 28.5 332.58 25.28 330.2 21.78 330.51"/><polyline class="cls-1" points="20.53 334.01 19.57 334.28 16.29 337.14 15.62 341.04 19.58 344.29 24.73 342.04 26.09 339.74 25.63 337.75 22.54 334.13 17.53 336.76"/><polyline class="cls-1" points="11.28 326.01 9.24 329.65 13.41 334.15 14.59 326.92 11.76 326.05 8.28 329.26"/><polyline class="cls-1" points="13.28 313.01 10.54 317.79 10.56 321.73 13.52 323.47 16.43 321.42 16.7 317.81 14.71 314.63 12.73 313.08 9.78 315.76"/><polyline class="cls-1" points="8.53 288.76 8.93 290.2 14.48 289.79 24.02 285.05 23.78 282.76"/><polygon class="cls-1" points="814.28 160.01 810.25 163.71 809.05 167.4 811.78 169.92 816.74 171.27 820 170.31 821.24 164 820.83 163.05 817.39 160.53 814.28 160.01 814.28 160.01"/><polygon class="cls-1" points="817.78 182.01 815.46 183.05 812.29 186.78 814.05 190.73 816.16 192.41 820.62 193.53 821.83 192.47 823.74 188.76 823.07 184.17 820.37 182.35 817.78 182.01 817.78 182.01"/><polygon class="cls-1" points="821.53 202.01 821.49 201.8 818.97 202.56 816.03 205.7 815.32 207.71 816.52 210.76 819.71 212.03 822.31 211.46 824.53 207.52 824.8 205.3 823.82 203.23 821.59 201 821.53 202.01 821.53 202.01"/><polyline class="cls-1" points="805.28 164.76 804.34 166.22 804.06 170.78 809.51 175.07 815.58 176.03 820.4 173 823.41 156.9 821.63 152.85 817.41 149.4 813.55 148.49 808.26 149.62 805.78 154.26"/><polyline class="cls-1" points="812.53 176.76 811.3 177.56 806.77 185.61 806.58 189.7 808.89 193.15 813.09 195.28 819.79 195 825.67 188.48 828.73 173.57 825.05 167.78 823.03 169.26"/><polyline class="cls-1" points="816.03 196.01 810.39 205.01 810.44 208.53 811.4 210.28 812.91 211.71 815.8 213.03 818.72 213.28 822.91 211.77 830.68 203.8 833.73 195.76 832.74 186.99 830.39 183.76 829.51 183.13 826.78 185.76"/><polyline class="cls-1" points="821.78 211.76 818.76 215.96 821.07 217.53 825.64 217.01 835.03 208.22 835.35 198.61 834.03 196.01"/><polyline class="cls-1" points="823.28 213.26 823.07 213.3 823.18 215.06 828.55 212.59 829 211.31 828.2 208.75 822.28 212.26"/><polyline class="cls-1" points="748.53 191.01 748.32 191.05 748.41 192.19 750.5 196.43 754.42 198.64 783.54 200.66 798.53 210.51"/></svg>